<?xml version="1.0" encoding="utf-8"?>
<!-- Generator: Adobe Illustrator 24.1.2, SVG Export Plug-In . SVG Version: 6.00 Build 0)  -->
<svg version="1.1" xmlns="http://www.w3.org/2000/svg" xmlns:xlink="http://www.w3.org/1999/xlink" x="0px" y="0px"
	 viewBox="0 0 500 500" style="enable-background:new 0 0 500 500;" xml:space="preserve">
<style type="text/css">
	.st0{fill:#D9D4DB;}
	.st1{opacity:0.7;fill:#D9D4DB;}
	.st2{fill:none;stroke:#263238;stroke-miterlimit:10;}
	.st3{opacity:0.3;}
	.st4{fill:none;stroke:#000000;stroke-linecap:round;stroke-linejoin:round;stroke-miterlimit:10;}
	.st5{fill:none;stroke:#000000;stroke-width:2;stroke-linecap:round;stroke-linejoin:round;stroke-miterlimit:10;}
	.st6{opacity:0.3;fill:none;stroke:#000000;stroke-linecap:round;stroke-linejoin:round;stroke-miterlimit:10;}
	.st7{fill:none;stroke:#263238;stroke-width:4;stroke-miterlimit:10;}
	.st8{fill:#263238;stroke:#263238;stroke-miterlimit:10;}
	.st9{fill:#F5931C;stroke:#263238;stroke-miterlimit:10;}
	.st10{fill:#263238;}
	.st11{fill:#FFFFFF;stroke:#263238;stroke-miterlimit:10;}
	.st12{fill:#161152;stroke:#263238;stroke-miterlimit:10;}
</style>
<g id="Background_Simple">
	<g>
		<path class="st0" d="M468.3,247.4c-4.7,40.2-23.1,86.9-59.8,108.4c-55.4,32.4-50.8,82.4-158.9,104.1c-16.9,3.4-32.9,4.8-47.9,4.5
			c-8.1-0.2-16-0.8-23.5-1.9c-68.7-10-115-57.8-131.9-115.5C24,271.2,68.6,221.5,98.1,191.6S149.3,68.5,255.4,46.4
			c16.2-3.4,32.7-5.1,49.3-4.7c37.8,0.9,78.9,13.3,107.4,39.2c2.1,1.9,4.2,4,6.2,6C458,127.6,474.8,192.6,468.3,247.4z"/>
		<path class="st1" d="M468.3,247.4c-4.7,40.2-23.1,86.9-59.8,108.4c-55.4,32.4-50.8,82.4-158.9,104.1c-16.9,3.4-32.9,4.8-47.9,4.5
			c-8.1-0.2-16-0.8-23.5-1.9c-68.7-10-115-57.8-131.9-115.5C24,271.2,68.6,221.5,98.1,191.6S149.3,68.5,255.4,46.4
			c16.2-3.4,32.7-5.1,49.3-4.7c37.8,0.9,78.9,13.3,107.4,39.2c2.1,1.9,4.2,4,6.2,6C458,127.6,474.8,192.6,468.3,247.4z"/>
	</g>
</g>
<g id="Floor">
	<g>
		<line class="st2" x1="50.4" y1="429.3" x2="29.9" y2="429.3"/>
		<line class="st2" x1="490.4" y1="429.3" x2="61.5" y2="429.3"/>
	</g>
</g>
<g id="Graphics">
	<g>
		<g class="st3">
			<path class="st4" d="M167.5,249.6c-38.9-10.9-67.3-46.6-67.3-89c0-38.3,23.3-71.1,56.4-85.1"/>
			<path class="st4" d="M201.1,252.7c-2.8,0.3-5.6,0.4-8.5,0.4c-6.6,0-13-0.7-19.2-2"/>
			<polyline class="st5" points="161,117.2 190,160.7 190,272.5 			"/>
			<line class="st4" x1="118.5" y1="53.7" x2="158.6" y2="113.7"/>
		</g>
		<g class="st3">
			<path class="st4" d="M412.3,118.7c-3.5-4.1-7.5-7.7-11.8-10.8c-7.6-5.4-16.5-9.2-26-10.9c-3.7-0.7-7.5-1-11.4-1
				c-35.8,0-64.8,29-64.8,64.8c0,13.7,4.2,26.4,11.5,36.8c4.4,6.3,9.8,11.8,16.1,16.2c10.5,7.4,23.4,11.7,37.2,11.7
				c35.8,0,64.8-29,64.8-64.8C427.8,144.7,421.9,130,412.3,118.7z M383.7,216.5c-6.4,2.4-13.4,3.7-20.7,3.7
				c-12.7,0-24.4-4-34.1-10.8c-5.8-4-10.8-9.1-14.8-14.9c-6.6-9.6-10.5-21.2-10.5-33.7c0-32.8,26.6-59.4,59.4-59.4
				c3.6,0,7,0.3,10.4,0.9c8.8,1.6,16.9,5,23.9,10c4,2.8,7.7,6.2,10.9,9.9c8.9,10.4,14.2,23.8,14.2,38.6c0,22.3-12.3,41.8-30.5,51.9"
				/>
			<path class="st4" d="M412.3,118.7c-3.5-4.1-7.5-7.7-11.8-10.8c-7.6-5.4-16.5-9.2-26-10.9c-3.7-0.7-7.5-1-11.4-1
				c-35.8,0-64.8,29-64.8,64.8c0,13.7,4.2,26.4,11.5,36.8c4.4,6.3,9.8,11.8,16.1,16.2c10.5,7.4,23.4,11.7,37.2,11.7
				c35.8,0,64.8-29,64.8-64.8C427.8,144.7,421.9,130,412.3,118.7z"/>
			<g>
				<path class="st5" d="M411,99.9c-1.1-0.8-2.2-1.7-3.3-2.4c-9.1-6.5-19.7-11-31.2-13c-4.4-0.8-9-1.2-13.6-1.2
					c-42.8,0-77.6,34.7-77.6,77.6c0,16.4,5.1,31.6,13.7,44.1c5.2,7.6,11.8,14.2,19.3,19.4c12.6,8.9,28,14.1,44.5,14.1
					c42.8,0,77.5-34.7,77.5-77.6c0-19.2-7-36.8-18.6-50.4c-1-1.2-2.1-2.3-3.1-3.5 M363,225.6c-13.8,0-26.7-4.3-37.2-11.7
					c-6.3-4.4-11.7-9.9-16.1-16.2c-7.2-10.5-11.5-23.1-11.5-36.8c0-35.8,29-64.8,64.8-64.8c3.9,0,7.7,0.3,11.4,1
					c9.6,1.7,18.4,5.5,26,10.9c4.4,3.1,8.4,6.8,11.8,10.8c9.7,11.3,15.5,26,15.5,42.1C427.8,196.6,398.8,225.6,363,225.6z"/>
				<path class="st4" d="M319,87.5c12.9-7.7,27.9-12.2,44-12.2v7.9c-12.6,0-24.5,3-35.1,8.4"/>
				<path class="st4" d="M319.8,96.4c-20.7,13.9-34.3,37.6-34.3,64.4c0,16.4,5.1,31.6,13.7,44.1l-6.5,4.5
					c-9.5-13.8-15.1-30.5-15.1-48.5c0-28.3,13.8-53.5,35-69"/>
				<path class="st4" d="M363,96v5.4c-32.8,0-59.4,26.6-59.4,59.4c0,12.5,3.9,24.2,10.5,33.7l-4.5,3.1
					c-7.2-10.5-11.5-23.1-11.5-36.8C298.2,125,327.2,96,363,96z"/>
				<path class="st4" d="M400.4,107.9l-3.1,4.4c-7-5-15.1-8.4-23.9-10l0.9-5.3C383.9,98.7,392.8,102.5,400.4,107.9z"/>
				<path class="st4" d="M412.3,91l-4.6,6.4c-9.1-6.5-19.7-11-31.2-13l1.4-7.8C390.6,78.9,402.3,83.9,412.3,91z"/>
				<path class="st4" d="M357.7,246.1c-16.2-1-31.3-6.5-43.8-15.3l4.5-6.4c12.6,8.9,28,14.1,44.5,14.1c42.8,0,77.5-34.7,77.5-77.6
					c0-19.2-7-36.8-18.6-50.4l6-5.1c12.8,14.9,20.5,34.3,20.5,55.5c0,45.8-36,83.2-81.3,85.3"/>
			</g>
		</g>
		<g class="st3">
			<path class="st4" d="M107.6,306.5c-3,2.6-5.7,5.5-7.9,8.7c-4,5.6-6.7,12.1-8,19.1c-0.5,2.7-0.7,5.5-0.7,8.4
				c0,26.3,21.3,47.6,47.6,47.6c10,0,19.4-3.1,27-8.4c4.6-3.2,8.7-7.2,11.9-11.8c5.4-7.7,8.6-17.2,8.6-27.3
				c0-26.3-21.3-47.6-47.6-47.6C126.7,295.1,115.9,299.4,107.6,306.5z M182.1,342.7c0,9.3-2.9,18-7.9,25c-3,4.2-6.7,7.9-10.9,10.8
				c-7,4.9-15.6,7.7-24.8,7.7c-24.1,0-43.6-19.5-43.6-43.6c0-2.6,0.2-5.2,0.7-7.7c1.1-6.4,3.7-12.4,7.3-17.5c2.1-3,4.5-5.6,7.3-8
				c7.6-6.5,17.5-10.5,28.3-10.5C162.6,299.1,182.1,318.6,182.1,342.7z"/>
			<path class="st4" d="M107.6,306.5c-3,2.6-5.7,5.5-7.9,8.7c-4,5.6-6.7,12.1-8,19.1c-0.5,2.7-0.7,5.5-0.7,8.4
				c0,26.3,21.3,47.6,47.6,47.6c10,0,19.4-3.1,27-8.4c4.6-3.2,8.7-7.2,11.9-11.8c5.4-7.7,8.6-17.2,8.6-27.3
				c0-26.3-21.3-47.6-47.6-47.6C126.7,295.1,115.9,299.4,107.6,306.5z M182.1,342.7c0,9.3-2.9,18-7.9,25c-3,4.2-6.7,7.9-10.9,10.8
				c-7,4.9-15.6,7.7-24.8,7.7c-24.1,0-43.6-19.5-43.6-43.6c0-2.6,0.2-5.2,0.7-7.7c1.1-6.4,3.7-12.4,7.3-17.5c2.1-3,4.5-5.6,7.3-8
				c7.6-6.5,17.5-10.5,28.3-10.5C162.6,299.1,182.1,318.6,182.1,342.7z"/>
			<g>
				<path class="st4" d="M101.5,299.4c-3.6,3.1-6.8,6.6-9.5,10.4c-4.8,6.7-8.1,14.5-9.6,22.9c-0.6,3.2-0.9,6.6-0.9,10
					c0,31.5,25.5,57,57,57c12,0,23.2-3.7,32.4-10.1c5.6-3.8,10.4-8.6,14.3-14.2c6.5-9.3,10.3-20.5,10.3-32.7
					c0-31.5-25.5-56.9-57-56.9C124.4,285.7,111.4,290.9,101.5,299.4z M186.1,342.7c0,10.2-3.2,19.6-8.6,27.3
					c-3.2,4.6-7.3,8.6-11.9,11.8c-7.7,5.3-17,8.4-27,8.4c-26.3,0-47.6-21.3-47.6-47.6c0-2.9,0.2-5.6,0.7-8.4c1.2-7,4-13.5,8-19.1
					c2.3-3.2,5-6.1,7.9-8.7c8.3-7.1,19.1-11.4,30.9-11.4C164.8,295.1,186.1,316.4,186.1,342.7z"/>
				<path class="st4" d="M75.7,342.7h5.8c0,31.5,25.5,57,57,57c12,0,23.2-3.7,32.4-10.1l3.3,4.8c-10.1,7-22.4,11.1-35.6,11.1
					C103.8,405.4,75.7,377.3,75.7,342.7z"/>
				<path class="st4" d="M138.5,299.1c24.1,0,43.6,19.5,43.6,43.6c0,9.3-2.9,18-7.9,25c-3,4.2-6.7,7.9-10.9,10.8
					c-7,4.9-15.6,7.7-24.8,7.7c-24.1,0-43.6-19.5-43.6-43.6c0-2.6,0.2-5.2,0.7-7.7c1.1-6.4,3.7-12.4,7.3-17.5c2.1-3,4.5-5.6,7.3-8
					C117.8,303,127.7,299.1,138.5,299.1z"/>
				<path class="st4" d="M90.9,342.7h4c0,24.1,19.5,43.6,43.6,43.6c9.2,0,17.7-2.8,24.8-7.7l2.3,3.3c-7.7,5.3-17,8.4-27,8.4
					C112.2,390.3,90.9,369,90.9,342.7z"/>
				<path class="st4" d="M99.6,315.2l3.2,2.3c-3.6,5.1-6.2,11.1-7.3,17.5l-3.9-0.7C92.9,327.3,95.7,320.8,99.6,315.2z"/>
				<path class="st4" d="M87.3,306.5l4.7,3.3c-4.8,6.7-8.1,14.5-9.6,22.9l-5.7-1C78.3,322.4,82,313.8,87.3,306.5z"/>
				<path class="st4" d="M138.5,295.1c26.3,0,47.6,21.3,47.6,47.6c0,10.2-3.2,19.6-8.6,27.3l-3.3-2.3c5-7.1,7.9-15.7,7.9-25
					c0-24.1-19.5-43.6-43.6-43.6c-10.8,0-20.7,3.9-28.3,10.5l-2.6-3C115.9,299.4,126.7,295.1,138.5,295.1z"/>
				<path class="st5" d="M138.5,279.9c34.7,0,62.7,28.1,62.7,62.7c0,13.4-4.2,25.8-11.4,36l-4.7-3.3c6.5-9.3,10.3-20.5,10.3-32.7
					c0-31.5-25.5-56.9-57-56.9c-14.1,0-27,5.1-37,13.6l-3.8-4.4C108.7,285.6,122.9,279.9,138.5,279.9z"/>
			</g>
		</g>
		<g class="st3">
			<polyline class="st4" points="373.9,289.4 373.9,255.5 399,255.5 			"/>
			<line class="st4" x1="373.9" y1="296" x2="373.9" y2="293.8"/>
			<g>
				<line class="st4" x1="411.1" y1="255.5" x2="430.6" y2="255.5"/>
				<line class="st4" x1="411.1" y1="261.2" x2="430.6" y2="261.2"/>
				<line class="st4" x1="411.1" y1="266.9" x2="430.6" y2="266.9"/>
			</g>
		</g>
		<line class="st6" x1="146.2" y1="338.3" x2="138.8" y2="341.4"/>
		<line class="st6" x1="236.1" y1="300.1" x2="150.9" y2="336.3"/>
	</g>
</g>
<g id="Robot_Arm">
	<g>
		<g>
			<path class="st7" d="M310.4,236.1c0,0,15.3-0.8,28.2-16c13-15.3,18.4-58,18.4-58"/>
			<path class="st7" d="M359.2,156.8c0,0,8.4,32,0.8,55.7c-7.6,23.6-33.6,43.5-54.9,42"/>
			<path class="st7" d="M335.6,171.3c0,0,13.7,62.5-25.9,76.3"/>
		</g>
		<g>
			<path class="st8" d="M115.2,173.7L96,192.7L92.4,206c-0.2,0.8,0,1.7,0.7,2.2v0c1,0.8,2.4,0.7,3.2-0.3l7.8-10.7l0.8,9.4
				c0.1,1.5,1.3,2.6,2.8,2.7l0,0c1.5,0.1,2.9-1,3.1-2.5l2.1-12.2l32.8-9.7L115.2,173.7z"/>
			
				<rect x="190.9" y="142.2" transform="matrix(0.953 -0.3029 0.3029 0.953 -37.1289 70.4342)" class="st8" width="35.2" height="25.3"/>
			<polygon class="st9" points="178.8,149.8 135.6,165.4 153.9,199.3 188.2,176.1 			"/>
			<path class="st8" d="M198.2,178l-5.8,1.8c-2.2,0.7-4.5-0.5-5.1-2.7L178,148c-0.7-2.2,0.5-4.5,2.7-5.1l5.8-1.8
				c2.2-0.7,4.5,0.5,5.1,2.7l9.3,29.2C201.6,175,200.4,177.3,198.2,178z"/>
			<path class="st8" d="M153.9,199.3c0,0-4-8.7,4.6-13.6c8.6-4.9,13.5,1.4,13.5,1.4l-3.9,2.6L153.9,199.3z"/>
			<path class="st9" d="M153.9,199.3c0,0,0.4-9.2,14.2-9.7l5,26.6l-13.8,1.3L153.9,199.3z"/>
			<path class="st9" d="M159.2,217.6l-7.4,12.9c-0.9,1.6-0.6,3.6,0.7,4.8l0,0c1.7,1.5,4.3,1.3,5.7-0.4l14.8-18.6L159.2,217.6z"/>
			<path class="st8" d="M173.1,218.5l-13.2,1.7c-1.1,0.1-2-0.6-2.2-1.7l0-0.3c-0.1-1.1,0.6-2,1.7-2.2l13.2-1.7
				c1.1-0.1,2,0.6,2.2,1.7l0,0.3C174.9,217.4,174.1,218.3,173.1,218.5z"/>
			<polygon class="st9" points="135.6,165.4 104.6,165.1 105.4,177.5 146.8,186.6 			"/>
			<polygon class="st9" points="104.6,165.1 82.4,165.9 83.6,177.5 105.4,177.5 			"/>
			<path class="st9" d="M82.4,165.9l-17.6,13.9c-1.1,0.9-1.6,2.5-1,3.8h0c0.7,1.8,2.8,2.6,4.6,1.7l15.2-7.8L82.4,165.9z"/>
			<path class="st8" d="M82.2,177.2l-1.4-10.6c-0.1-1,0.5-1.9,1.5-2l0,0c1-0.1,1.9,0.5,2,1.5l1.4,10.6c0.1,1-0.5,1.9-1.5,2l0,0
				C83.2,178.9,82.3,178.2,82.2,177.2z"/>
			<path class="st8" d="M104,176.1l-0.1-10.7c0-1,0.8-1.8,1.8-1.8l0,0c1,0,1.8,0.8,1.8,1.8l0.1,10.7c0,1-0.8,1.8-1.8,1.8l0,0
				C104.8,177.9,104,177.1,104,176.1z"/>
			<polygon class="st8" points="146.8,186.6 144,162.7 135.6,165.4 			"/>
			<polygon class="st9" points="135.6,165.4 99.5,173.2 104.2,186.4 146.8,186.6 			"/>
			<polygon class="st9" points="99.5,173.2 84.1,190.9 90.2,197.1 104.2,186.4 			"/>
			<path class="st9" d="M84.1,190.9l-7.8,14.9c-0.6,1.1-0.3,2.4,0.7,3.1l0,0c1,0.8,2.5,0.6,3.3-0.4l9.8-11.4L84.1,190.9z"/>
			<path class="st8" d="M90,199.4l-8.3-6.8c-0.8-0.6-0.9-1.7-0.3-2.5l0,0c0.6-0.8,1.7-0.9,2.5-0.3l8.3,6.8c0.8,0.6,0.9,1.7,0.3,2.5
				l0,0C91.9,199.9,90.8,200,90,199.4z"/>
			<path class="st8" d="M102.5,186.6l-4.2-13.1c-0.3-0.9,0.2-1.9,1.1-2.3l0,0c0.9-0.3,1.9,0.2,2.3,1.1l4.2,13.1
				c0.3,0.9-0.2,1.9-1.1,2.3l0,0C103.9,188,102.8,187.6,102.5,186.6z"/>
		</g>
		<g>
			<path class="st9" d="M319.4,139.5L319.4,139.5c-11.9-2.4-23.5,5.2-25.9,17.1l-53.8,123.1l61.9,9.5l35-123.8
				C338.9,153.5,331.2,141.9,319.4,139.5z"/>
			<g>
				<path class="st10" d="M288.4,244.3c-0.6,0-1.2-0.1-1.8-0.3c-2.8-1-4.3-4.1-3.3-7l19.6-55.7c1-2.8,4.1-4.3,7-3.3
					c2.8,1,4.3,4.1,3.3,7l-19.6,55.7C292.7,242.9,290.6,244.3,288.4,244.3z"/>
			</g>
		</g>
		<path class="st9" d="M387.8,417.8l10-71.5c3.6-16.6-7.7-32.7-25.2-36.1h0c-17.5-3.4-34.5,7.3-38.1,23.9l-51.5,83.7H387.8z"/>
		<g>
			<g>
				<path class="st9" d="M247.7,276.7L247.7,276.7c-7.6,13.2-3,30.2,10.2,37.8l86.9,62.4l35.9-70.2l-95.3-40.2
					C272.2,258.9,255.3,263.5,247.7,276.7z"/>
				<g>
					<path class="st10" d="M312.3,325.3c-1,0-2-0.3-3-0.9L284.1,308c-2.5-1.6-3.2-5-1.6-7.5c1.6-2.5,5-3.2,7.5-1.6l25.2,16.4
						c2.5,1.6,3.2,5,1.6,7.5C315.9,324.4,314.1,325.3,312.3,325.3z"/>
				</g>
			</g>
			
				<ellipse transform="matrix(0.8071 -0.5904 0.5904 0.8071 -131.7294 278.9248)" class="st11" cx="361" cy="341" rx="39.6" ry="39.6"/>
			<g>
				
					<ellipse transform="matrix(0.8524 -0.5228 0.5228 0.8524 -125.0737 239.1738)" class="st11" cx="361.2" cy="341.2" rx="27.1" ry="27.1"/>
				<g>
					<line class="st2" x1="361.2" y1="341.2" x2="337.7" y2="327.7"/>
					<line class="st2" x1="361.2" y1="341.2" x2="334.7" y2="335.6"/>
					<line class="st2" x1="361.2" y1="341.2" x2="334.2" y2="344.1"/>
					<line class="st2" x1="361.2" y1="341.2" x2="336.5" y2="352.2"/>
					<line class="st2" x1="361.2" y1="341.2" x2="341.1" y2="359.3"/>
					<line class="st2" x1="361.2" y1="341.2" x2="347.7" y2="364.6"/>
					<line class="st2" x1="361.2" y1="341.2" x2="355.6" y2="367.7"/>
					<line class="st2" x1="361.2" y1="341.2" x2="364.1" y2="368.1"/>
					<line class="st2" x1="361.2" y1="341.2" x2="372.2" y2="365.9"/>
					<line class="st2" x1="361.2" y1="341.2" x2="379.3" y2="361.2"/>
					<line class="st2" x1="361.2" y1="341.2" x2="384.7" y2="354.6"/>
					<line class="st2" x1="361.2" y1="341.2" x2="387.7" y2="346.7"/>
					<line class="st2" x1="361.2" y1="341.2" x2="388.1" y2="338.3"/>
					<line class="st2" x1="361.2" y1="341.2" x2="385.9" y2="330.1"/>
					<line class="st2" x1="361.2" y1="341.2" x2="381.2" y2="323"/>
					<line class="st2" x1="361.2" y1="341.2" x2="374.6" y2="317.7"/>
					<line class="st2" x1="361.2" y1="341.2" x2="366.7" y2="314.7"/>
					<line class="st2" x1="361.2" y1="341.2" x2="358.3" y2="314.2"/>
					<line class="st2" x1="361.2" y1="341.2" x2="350.1" y2="316.5"/>
					<line class="st2" x1="361.2" y1="341.2" x2="343" y2="321.1"/>
				</g>
			</g>
			<ellipse transform="matrix(0.265 -0.9642 0.9642 0.265 -63.5433 598.729)" class="st8" cx="361" cy="341" rx="14.9" ry="14.9"/>
			
				<ellipse transform="matrix(0.1371 -0.9906 0.9906 0.1371 -54.7208 515.2728)" class="st11" cx="268.4" cy="289" rx="30.8" ry="30.8"/>
			<g>
				
					<ellipse transform="matrix(0.1038 -0.9946 0.9946 0.1038 -46.959 525.9719)" class="st11" cx="268.4" cy="289" rx="19.7" ry="19.7"/>
				<g>
					<line class="st2" x1="268.4" y1="289" x2="251.3" y2="279.3"/>
					<line class="st2" x1="268.4" y1="289" x2="249.2" y2="285"/>
					<line class="st2" x1="268.4" y1="289" x2="248.8" y2="291.1"/>
					<line class="st2" x1="268.4" y1="289" x2="250.5" y2="297.1"/>
					<line class="st2" x1="268.4" y1="289" x2="253.8" y2="302.2"/>
					<line class="st2" x1="268.4" y1="289" x2="258.6" y2="306.1"/>
					<line class="st2" x1="268.4" y1="289" x2="264.3" y2="308.3"/>
					<line class="st2" x1="268.4" y1="289" x2="270.5" y2="308.6"/>
					<line class="st2" x1="268.4" y1="289" x2="276.4" y2="307"/>
					<line class="st2" x1="268.4" y1="289" x2="281.6" y2="303.6"/>
					<line class="st2" x1="268.4" y1="289" x2="285.4" y2="298.8"/>
					<line class="st2" x1="268.4" y1="289" x2="287.6" y2="293.1"/>
					<line class="st2" x1="268.4" y1="289" x2="287.9" y2="286.9"/>
					<line class="st2" x1="268.4" y1="289" x2="286.3" y2="281"/>
					<line class="st2" x1="268.4" y1="289" x2="282.9" y2="275.9"/>
					<line class="st2" x1="268.4" y1="289" x2="278.2" y2="272"/>
					<line class="st2" x1="268.4" y1="289" x2="272.4" y2="269.8"/>
					<line class="st2" x1="268.4" y1="289" x2="266.3" y2="269.5"/>
					<line class="st2" x1="268.4" y1="289" x2="260.3" y2="271.1"/>
					<line class="st2" x1="268.4" y1="289" x2="255.2" y2="274.5"/>
				</g>
			</g>
			
				<ellipse transform="matrix(0.8498 -0.5271 0.5271 0.8498 -112.0398 184.8559)" class="st8" cx="268.4" cy="289" rx="11.6" ry="11.6"/>
		</g>
		<g>
			<path class="st9" d="M284.1,132.6l-0.7,7.4l-15-0.9l0.4-6.7l-41-0.4c-11.1-0.9-20.8,7.4-21.8,18.5v0
				c-0.9,11.1,7.4,20.8,18.5,21.8l40.4,5.6l0.9-5.9l14.8,1.6l-0.6,6.4l77.6,10.8l1.9-57.5L284.1,132.6z"/>
			<g>
				<polygon class="st8" points="283.3,140 276.4,139.6 273.5,172.8 280.5,173.6 				"/>
				<polygon class="st8" points="271.3,172.5 274.2,139.5 268.3,139.1 265.7,172 				"/>
			</g>
			<g>
				
					<ellipse transform="matrix(6.548129e-02 -0.9979 0.9979 6.548129e-02 171.8761 507.7531)" class="st11" cx="357" cy="162.1" rx="28.9" ry="28.9"/>
				<g>
					
						<ellipse transform="matrix(0.1213 -0.9926 0.9926 0.1213 152.9257 497.008)" class="st11" cx="357.2" cy="162.1" rx="19.8" ry="19.8"/>
					<g>
						<line class="st2" x1="357.2" y1="162.1" x2="337.5" y2="160.5"/>
						<line class="st2" x1="357.2" y1="162.1" x2="338" y2="166.7"/>
						<line class="st2" x1="357.2" y1="162.1" x2="340.3" y2="172.4"/>
						<line class="st2" x1="357.2" y1="162.1" x2="344.3" y2="177.1"/>
						<line class="st2" x1="357.2" y1="162.1" x2="349.6" y2="180.4"/>
						<line class="st2" x1="357.2" y1="162.1" x2="355.6" y2="181.8"/>
						<line class="st2" x1="357.2" y1="162.1" x2="361.7" y2="181.3"/>
						<line class="st2" x1="357.2" y1="162.1" x2="367.5" y2="179"/>
						<line class="st2" x1="357.2" y1="162.1" x2="372.2" y2="175"/>
						<line class="st2" x1="357.2" y1="162.1" x2="375.4" y2="169.7"/>
						<line class="st2" x1="357.2" y1="162.1" x2="376.9" y2="163.7"/>
						<line class="st2" x1="357.2" y1="162.1" x2="376.4" y2="157.6"/>
						<line class="st2" x1="357.2" y1="162.1" x2="374.1" y2="151.9"/>
						<line class="st2" x1="357.2" y1="162.1" x2="370.1" y2="147.1"/>
						<line class="st2" x1="357.2" y1="162.1" x2="364.8" y2="143.9"/>
						<line class="st2" x1="357.2" y1="162.1" x2="358.8" y2="142.4"/>
						<line class="st2" x1="357.2" y1="162.1" x2="352.6" y2="142.9"/>
						<line class="st2" x1="357.2" y1="162.1" x2="346.9" y2="145.3"/>
						<line class="st2" x1="357.2" y1="162.1" x2="342.2" y2="149.3"/>
						<line class="st2" x1="357.2" y1="162.1" x2="339" y2="154.5"/>
					</g>
				</g>
				
					<ellipse transform="matrix(0.7673 -0.6413 0.6413 0.7673 -20.8801 266.6885)" class="st8" cx="357" cy="162.1" rx="10.9" ry="10.9"/>
			</g>
			<g>
				
					<ellipse transform="matrix(5.517299e-02 -0.9985 0.9985 5.517299e-02 134.5809 458.8235)" class="st11" cx="309.7" cy="158.3" rx="17.5" ry="17.5"/>
				<g>
					
						<ellipse transform="matrix(0.9332 -0.3592 0.3592 0.9332 -36.1879 121.8675)" class="st11" cx="309.8" cy="158.3" rx="12" ry="12"/>
					<g>
						<line class="st2" x1="309.8" y1="158.3" x2="297.9" y2="157.3"/>
						<line class="st2" x1="309.8" y1="158.3" x2="298.2" y2="161.1"/>
						<line class="st2" x1="309.8" y1="158.3" x2="299.6" y2="164.5"/>
						<line class="st2" x1="309.8" y1="158.3" x2="302" y2="167.4"/>
						<line class="st2" x1="309.8" y1="158.3" x2="305.2" y2="169.4"/>
						<line class="st2" x1="309.8" y1="158.3" x2="308.9" y2="170.2"/>
						<line class="st2" x1="309.8" y1="158.3" x2="312.6" y2="170"/>
						<line class="st2" x1="309.8" y1="158.3" x2="316.1" y2="168.5"/>
						<line class="st2" x1="309.8" y1="158.3" x2="318.9" y2="166.1"/>
						<line class="st2" x1="309.8" y1="158.3" x2="320.9" y2="162.9"/>
						<line class="st2" x1="309.8" y1="158.3" x2="321.8" y2="159.3"/>
						<line class="st2" x1="309.8" y1="158.3" x2="321.5" y2="155.5"/>
						<line class="st2" x1="309.8" y1="158.3" x2="320.1" y2="152.1"/>
						<line class="st2" x1="309.8" y1="158.3" x2="317.6" y2="149.2"/>
						<line class="st2" x1="309.8" y1="158.3" x2="314.4" y2="147.3"/>
						<line class="st2" x1="309.8" y1="158.3" x2="310.8" y2="146.4"/>
						<line class="st2" x1="309.8" y1="158.3" x2="307.1" y2="146.7"/>
						<line class="st2" x1="309.8" y1="158.3" x2="303.6" y2="148.1"/>
						<line class="st2" x1="309.8" y1="158.3" x2="300.7" y2="150.5"/>
						<line class="st2" x1="309.8" y1="158.3" x2="298.8" y2="153.7"/>
					</g>
				</g>
				<path class="st8" d="M310.3,151.7c-3.6-0.3-6.8,2.4-7.1,6c-0.3,3.6,2.4,6.8,6,7.1c3.6,0.3,6.8-2.4,7.1-6
					C316.6,155.2,313.9,152,310.3,151.7z"/>
			</g>
			
				<ellipse transform="matrix(0.9557 -0.2942 0.2942 0.9557 -34.7477 73.4712)" class="st11" cx="226.8" cy="152.2" rx="22.5" ry="22.5"/>
			
				<ellipse transform="matrix(0.7443 -0.6678 0.6678 0.7443 -44.5356 188.1261)" class="st11" cx="223.4" cy="152.2" rx="22.5" ry="22.5"/>
			<g>
				
					<ellipse transform="matrix(0.9558 -0.2939 0.2939 0.9558 -34.8697 72.3814)" class="st11" cx="223.4" cy="152.2" rx="14.4" ry="14.4"/>
				<g>
					<line class="st2" x1="223.4" y1="152.2" x2="209.2" y2="151.1"/>
					<line class="st2" x1="223.4" y1="152.2" x2="209.5" y2="155.5"/>
					<line class="st2" x1="223.4" y1="152.2" x2="211.2" y2="159.7"/>
					<line class="st2" x1="223.4" y1="152.2" x2="214.1" y2="163.1"/>
					<line class="st2" x1="223.4" y1="152.2" x2="217.9" y2="165.5"/>
					<line class="st2" x1="223.4" y1="152.2" x2="222.3" y2="166.5"/>
					<line class="st2" x1="223.4" y1="152.2" x2="226.7" y2="166.2"/>
					<line class="st2" x1="223.4" y1="152.2" x2="230.9" y2="164.5"/>
					<line class="st2" x1="223.4" y1="152.2" x2="234.3" y2="161.6"/>
					<line class="st2" x1="223.4" y1="152.2" x2="236.7" y2="157.8"/>
					<line class="st2" x1="223.4" y1="152.2" x2="237.7" y2="153.4"/>
					<line class="st2" x1="223.4" y1="152.2" x2="237.4" y2="148.9"/>
					<line class="st2" x1="223.4" y1="152.2" x2="235.7" y2="144.8"/>
					<line class="st2" x1="223.4" y1="152.2" x2="232.8" y2="141.4"/>
					<line class="st2" x1="223.4" y1="152.2" x2="229" y2="139"/>
					<line class="st2" x1="223.4" y1="152.2" x2="224.6" y2="137.9"/>
					<line class="st2" x1="223.4" y1="152.2" x2="220.1" y2="138.3"/>
					<line class="st2" x1="223.4" y1="152.2" x2="216" y2="140"/>
					<line class="st2" x1="223.4" y1="152.2" x2="212.6" y2="142.9"/>
					<line class="st2" x1="223.4" y1="152.2" x2="210.2" y2="146.7"/>
				</g>
			</g>
			<path class="st8" d="M224.1,143.8c-4.6-0.4-8.7,3.1-9.1,7.7c-0.4,4.6,3.1,8.7,7.7,9.1c4.6,0.4,8.7-3.1,9.1-7.7
				C232.2,148.3,228.8,144.2,224.1,143.8z"/>
		</g>
		<g>
			<g>
				<path class="st12" d="M287.9,412.7c0,2.5-2.1,4.5-4.8,4.5c-2.6,0-4.8-2-4.8-4.5c0-2.5,2.1-4.5,4.8-4.5
					C285.7,408.2,287.9,410.2,287.9,412.7z"/>
				<path class="st12" d="M299,412.7c0,2.5-2.1,4.5-4.8,4.5s-4.8-2-4.8-4.5c0-2.5,2.1-4.5,4.8-4.5S299,410.2,299,412.7z"/>
				<path class="st12" d="M310.2,412.7c0,2.5-2.1,4.5-4.8,4.5c-2.6,0-4.8-2-4.8-4.5c0-2.5,2.1-4.5,4.8-4.5
					C308.1,408.2,310.2,410.2,310.2,412.7z"/>
				<path class="st12" d="M321.4,412.7c0,2.5-2.1,4.5-4.8,4.5s-4.8-2-4.8-4.5c0-2.5,2.1-4.5,4.8-4.5S321.4,410.2,321.4,412.7z"/>
				<path class="st12" d="M332.5,412.7c0,2.5-2.1,4.5-4.8,4.5c-2.6,0-4.8-2-4.8-4.5c0-2.5,2.1-4.5,4.8-4.5
					C330.4,408.2,332.5,410.2,332.5,412.7z"/>
				<path class="st12" d="M343.7,412.7c0,2.5-2.1,4.5-4.8,4.5c-2.6,0-4.8-2-4.8-4.5c0-2.5,2.1-4.5,4.8-4.5
					C341.6,408.2,343.7,410.2,343.7,412.7z"/>
				<path class="st12" d="M354.9,412.7c0,2.5-2.1,4.5-4.8,4.5s-4.8-2-4.8-4.5c0-2.5,2.1-4.5,4.8-4.5S354.9,410.2,354.9,412.7z"/>
				<path class="st12" d="M366,412.7c0,2.5-2.1,4.5-4.8,4.5c-2.6,0-4.8-2-4.8-4.5c0-2.5,2.1-4.5,4.8-4.5
					C363.9,408.2,366,410.2,366,412.7z"/>
				<path class="st12" d="M377.2,412.7c0,2.5-2.1,4.5-4.8,4.5s-4.8-2-4.8-4.5c0-2.5,2.1-4.5,4.8-4.5S377.2,410.2,377.2,412.7z"/>
				<path class="st12" d="M388.4,412.7c0,2.5-2.1,4.5-4.8,4.5c-2.6,0-4.8-2-4.8-4.5c0-2.5,2.1-4.5,4.8-4.5
					C386.2,408.2,388.4,410.2,388.4,412.7z"/>
				<path class="st12" d="M399.5,412.7c0,2.5-2.1,4.5-4.8,4.5c-2.6,0-4.8-2-4.8-4.5c0-2.5,2.1-4.5,4.8-4.5
					C397.4,408.2,399.5,410.2,399.5,412.7z"/>
			</g>
			<rect x="274.9" y="412.6" class="st12" width="128" height="16.6"/>
		</g>
		<path class="st2" d="M356.1,172.9"/>
	</g>
</g>
</svg>
