<?xml version="1.0" encoding="utf-8"?>
<!-- Generator: Adobe Illustrator 24.1.2, SVG Export Plug-In . SVG Version: 6.00 Build 0)  -->
<svg version="1.1" id="Layer_1" xmlns="http://www.w3.org/2000/svg" xmlns:xlink="http://www.w3.org/1999/xlink" x="0px" y="0px"
	 viewBox="0 0 406 306" style="enable-background:new 0 0 406 306;" xml:space="preserve">
<style type="text/css">
	.st0{opacity:0.18;fill:#9997B9;enable-background:new    ;}
	.st1{opacity:3.000000e-02;fill:#020202;enable-background:new    ;}
	.st2{fill:#161152;}
	.st3{fill:#F5931C;}
	.st4{fill:#FFFFFF;}
	.st5{fill:#AB5429;}
	.st6{opacity:0.1;fill:#020202;enable-background:new    ;}
	.st7{fill:#302F2E;}
	.st8{fill:#773B20;}
	.st9{fill:url(#SVGID_1_);}
	.st10{fill:#FF681C;}
	.st11{opacity:0.33;fill:#68E1FD;enable-background:new    ;}
</style>
<path class="st0" d="M245.8,11.7l72.5,7.3c16.1,1.6,32.5,3.3,47.1,10.2c21.4,10,37.3,31.7,38.8,55.3c1.4,20.9-7.4,40.4-8.5,61
	c-1.1,22.2,11.3,39.5,11.3,61.7c-0.1,24-9.6,46.9-26.4,64c-23.6,23.8-58.6,32.8-92,34.5s-67.1-2.6-100.6-0.8
	c-31.7,1.7-63.2,9-94.9,6.5S28,294.2,15.5,265c-11-25.6-3.7-56.7,6.1-81.6c7.9-20.1,24.7-29.6,35.2-48.6C76.6,99.2,77.7,51,111.9,24
	c27.4-21.6,66-19.2,100.7-15.7L245.8,11.7z"/>
<path class="st1" d="M290.7,247.3c-4,1.2-8.7,3.1-9.4,7.2c-0.5,3.1,1.8,6.2,4.7,7.6c3,1.2,6.2,1.7,9.4,1.5
	c21.1,0.4,43.2,0.6,62.1-8.8c4.1-2.1,8-4.5,12.2-6.5c2.4-0.9,4.7-2.2,6.8-3.7c2.1-1.6,3.2-4.3,2.8-6.9c-0.7-3-4-4.9-7.1-5
	c-3.1-0.1-6.1,1.1-9,2.2c-12.2,4.5-25.1,6.6-38.1,6.3c-5.4-0.1-10-1.2-15.2,0.3C303.4,243.5,297.1,245.5,290.7,247.3z"/>
<polygon class="st2" points="152.5,163.7 77.6,200.5 77.6,123.4 152.5,86.6 "/>
<polygon class="st3" points="187.7,183.1 112.7,219.9 112.7,142.8 187.7,106 "/>
<polygon class="st4" points="220.8,197.5 145.8,234.2 145.8,157.1 220.8,120.4 "/>
<path class="st5" d="M318.9,242.5c0.1,1.8-0.3,3.6-1,5.2c-0.9,1.5-2.2,2.7-3.8,3.5c-3.4,1.8-7.4,2.2-11,1.1c-0.5-0.1-1-0.4-1.3-0.8
	c-0.2-0.3-0.3-0.7-0.2-1.1c0.3-2,1.3-3.9,2.9-5.2c1.6-1.3,2.9-2.8,4-4.6c1.7-3.4,0.4-12.5,6.9-11C320.7,230.8,319,238.7,318.9,242.5
	z"/>
<path class="st3" d="M319.8,248.6c0,0,0.9,2.2-0.2,3.6c-1.1,1.3-12.7,8.5-20.5,2.8s10.6-6.6,10.6-6.6L319.8,248.6z"/>
<path class="st4" d="M319.3,243.4c-0.7-0.4-1.6-0.1-2.1,0.5c-1.5,1.8-3.9,2.6-6.2,2.2c-2.5-0.6-3.6-3.5-4.8-3.5
	c-1.3,0-8,5.7-8.4,8.2s3.1,4.3,6.9,4.5c3.8,0.2,12.4-2.4,14.1-4.4C320.2,248.6,320.4,245.8,319.3,243.4z"/>
<path class="st5" d="M341,246c0.1,1.8-0.3,3.6-1,5.2c-0.9,1.5-2.2,2.7-3.8,3.5c-3.4,1.8-7.4,2.2-11,1.1c-0.5-0.1-1-0.4-1.3-0.8
	c-0.2-0.3-0.3-0.7-0.2-1.1c0.3-2,1.3-3.9,2.9-5.2c1.6-1.3,2.9-2.8,4-4.6c1.7-3.4,0.4-12.5,6.9-11C342.8,234.3,341.2,242.2,341,246z"
	/>
<path class="st3" d="M341.9,252.2c0,0,0.9,2.3-0.2,3.6c-1.1,1.3-12.7,8.5-20.5,2.8c-7.8-5.8,10.6-6.5,10.6-6.5L341.9,252.2z"/>
<path class="st4" d="M341.5,246.9c-0.7-0.4-1.6-0.1-2.1,0.5c-1.5,1.8-3.9,2.6-6.2,2.2c-2.5-0.6-3.6-3.5-4.8-3.6s-8,5.7-8.4,8.2
	c-0.4,2.5,3,4.3,6.9,4.5c3.8,0.2,12.4-2.4,14.1-4.4C342.3,252.2,342.5,249.4,341.5,246.9z"/>
<path class="st2" d="M345.6,150.8c0,0,1.2,66.2-3.7,88.3l-12.4,1.5l-8.6-90.7L345.6,150.8z"/>
<path class="st2" d="M307.2,143.6c0,0-5.9,35.7,1.3,93.1l12.4,1.5l8.6-90.7L307.2,143.6z"/>
<path class="st4" d="M292.6,115c0.1,2.4,0.9,4.5,3,5.2l0.5,0.1c3.8,0.8,8.8-2.1,12.3-4.7c1.4-1.1,2.8-2.2,4.1-3.4V86.7l-18.6,19
	C293,108.7,292.5,111.9,292.6,115z"/>
<path class="st4" d="M308.3,115.6c0,1.2-0.2,2.4-0.2,3.6c0,6.6,1.5,13.4-0.4,19.9c-0.6,1.4-0.8,2.9-0.5,4.4c0.6,1.2,1.5,2.1,2.8,2.7
	c5.8,3.2,12.6,4.1,19.1,5.1c4.9,0.7,12,2.2,16.6-0.5c1.9-1.1,2.6-3.2,3.2-5.4c2-6.7,2.6-13.9,3.1-20.9c0.1-0.9,0.1-1.8,0.2-2.8
	c0.4-6.3,0.5-12.7,0.4-19c-0.1-4.6-0.4-9.6-3.4-13c-4-4.6-11.7-7.7-17.6-8.8c-1.9-0.4-3.8-0.5-5.8-0.3c-2.7,0.4-5.4,1.3-7.8,2.6
	c-2.9,1.4-5.5,2.7-6.9,5.5c-1.6,3.3-2.7,6.9-3.2,10.5c-0.5,3.4-0.6,6.9-0.2,10.3c0.2,1.7,0.6,3.3,0.8,5
	C308.3,115,308.3,115.3,308.3,115.6z"/>
<path class="st6" d="M335.3,153c1.9,0.6,6.3-1.2,7.8-1.4c0.9-0.2,1.7-0.6,2.6-0.8c4.4-1.1,4.9-13.4,5.3-16.7
	c1.1-8.7,2.9-17.8,3-26.6c0.2-3.4-0.2-6.8-1.2-10c-1-3.3-3.4-6-6.6-7.3c-0.6-0.3-1.3-0.3-1.9-0.2c-2.7,0.7-3.2,5.1-3.7,7.2
	c-0.7,3.3-1.9,6.7-4.7,8.7c-6.9,4.9-18.6,1.3-26.1,0c-0.7-0.2-1.4-0.2-2,0c-1,0.6-1.4,1.8-1.1,2.9c0.3,1,0.8,2.1,1.4,3
	c1.8,3.6,1.3,7.9,2.3,11.8c1.5,4.7,4.4,8.7,8.4,11.5c4,2.7,8.2,5.1,12.5,7.2c1,0.4,1.9,1.1,2.6,1.8c0.9,1.1,1.3,2.5,1.3,4
	c0,0.9-1.2,3.7-0.8,4.4C334.6,152.7,334.9,152.9,335.3,153z"/>
<path class="st5" d="M321.8,75.6c0.7,0.8,1.7,1.3,2.7,1.4c0.9,0.1,1.7,0.1,2.6,0h0.5c0.1,0,0.2,0,0.3,0.1c0.1,0.1,0.2,0.2,0.2,0.4
	c0.2,1.7,0.2,3.5,0.1,5.2l0,0l-0.1,0.9c-0.1,0.3,0,0.7,0.1,1c0.2,0.4,0.6,0.6,1,0.7c0.8,0.2,1.5,0.4,2.3,0.4
	c1.7-0.2,3.4-0.7,4.8-1.7c-0.1-3,0-5.9,0.5-8.9c0.6-3.8,1.5-7.6,1.1-11.4c-0.1-1.5-0.6-3-1.6-4.1c-1.5-1.4-3.6-2.2-5.6-2
	c-2.7-0.1-5.4,0.7-7.8,2.1c-0.9,0.6-1,1.4-1.2,2.3c-0.3,1.5-0.5,3-0.7,4.5c-0.2,1.5-0.3,3.4-0.3,5.2C320.7,73,321,74.4,321.8,75.6z"
	/>
<path class="st7" d="M338.9,73.9c-0.4,0.5-1.8,2.4-2.2,2.5s-0.7-0.4-0.8-0.8c-0.5-1.7-0.4-3.5,0.3-5.2c0.4-0.8,0.7-1.8,0.7-2.7
	c-0.1-0.9-1.5-1.7-2-1.1s-0.6,1.9-1.4,1.6c1-2.7-0.2-5.7-2.8-7c-1.8-0.8-4-0.4-5.9-0.8l-0.5-0.1c-0.6,0-1.5,0.1-2.1,0.6
	c-1,0.9-1.1,2.4-1.4,2.4c-0.2,0-0.3-1-0.3-1.1c-0.1-1,0.2-1.8,0.1-1.8c0,0-0.1,0.1-0.3,0.5c-0.3,0.6-0.5,1.1-0.6,1.4
	c-0.3,0.7-0.9,1.5-1.1,1.5c-0.2-0.1,0-0.9-0.4-1c-0.1,0-0.2,0-0.9,0.2c-0.4,0.1-0.4,0.1-0.5,0.1c-0.1,0.1-0.4,0.3-0.5,0.8
	c-0.5-0.1-0.7-0.3-0.8-0.4c-0.1-0.1-0.2-0.4-0.3-0.4c0,0,0,0-0.1,0c0,0-0.1,0-0.3-0.1c-0.5-0.2,0.4-1.3,0.4-1.3s0.2-0.6-0.6-0.5
	c-0.8,0.1-0.2,0.6-0.4,1.5c-0.2,0.8-0.9,1.1-1.1,1.2c-0.3,0.1,0,0.4-0.1,0.6c-0.1,0.1-0.6,0-0.6,0s-0.3,1.2-0.6,1.4
	c-0.2,0.1-0.7-0.1-0.6-0.5c0.1-0.4-0.1-0.8,0-1.2c0.2-0.4,1.2-0.2,1-1.1c-0.2-1,0.8-1.3,1.4-2.3c0.5-1-0.3-1.3-0.3-1.3
	s-0.6,0.6-2,0.9c-1.3,0.3-1.9-0.2-1.9-0.2s0.2-1.1,0.4-0.7c0.2,0.4,0.6-0.1,0.9-0.4c0.3-0.3,0.8,0,0.9-0.1c0.2-0.1,0.4-0.5,0.4-0.5
	c0.1,0.1,0.2,0.2,0.4,0.2c0.3,0,0.3-0.7,0.8-1.4c0.2-0.3,0.6-0.7,1.4-1.4c0.2-0.2,0.4-0.3,0.4-0.6c0-0.3-0.1-0.6-0.2-0.7
	c0,0-0.3,0.1-0.5,0c-0.1-0.1,0-0.3-0.1-0.4c-0.1-0.1-0.2-0.1-0.3-0.1c-0.6,0-0.9,0.4-1.2,0.3c-0.2-0.1-0.3-0.3-0.3-0.6
	c0-0.2,0.2-0.4,0.5-0.5c0.2,0.5,3,0.1,3,0.1s1.5-0.8,0-0.6c-1.5,0.2-1.2-0.9-1.5-1c-0.3-0.1-0.6-0.4-0.9-0.8
	c-0.4-0.4-0.8,0.4-1.2,0.2c-0.4-0.2-0.3-0.7-0.3-0.7c-0.5-0.1-1.3-0.5-1.8-1.2c-0.1-0.2-0.3-0.5-0.3-0.6c0.2-0.3,2.3,1,2.6,0.6
	c0,0,0.1-0.2,0.1-0.3c-0.1-0.2-0.4-0.2-0.1-0.5c0-0.1,0.1-0.1,0.1-0.1c0.2,0,0.4,0.8,1,1.2c0.2,0.1,0.5,0.2,0.9,0.1
	c0.8-0.3,1.5-0.3,1.9-0.3c0.6,0,1.3,0.2,1.3,0.2c0,0,0,0-0.1,0c-0.3-0.2-0.2-1.4-0.8-1.7c-0.6-0.3-0.8-0.3-0.8-1
	c0-0.7,0.6-0.4,0.6-0.1c0,0.3,1,0.7,1,0.7s0.7-0.4,1.8,0.7s1.1,1.1,1.1,1.1s1-3,0.4-3.3c-0.6-0.4-0.8,1.6-0.8,1.6s-1-0.4-0.7-1.3
	c0.3-0.9-0.2-2.1-0.4-2.4c-0.3-0.3,0.2-0.5,0.3-0.8c0.1-0.3,0.7-0.1,0.6,0.4c-0.2,0.4,0.5,2,0.6,1.7c0.1-0.3,0.7-3,0.7-3
	s0.1,1.2,0,1.4s0.6,0.3,1,0.5c0.4,0.3-0.1,1.7,0.3,1.5c0.5-0.1,0.5,0.4,0.5,0.4c0.9,1.5,3.4,1.7,3.6,2.7c0.5-0.3,1-0.5,1.6-0.6
	c-0.4,0.2-0.7,0.6-0.6,1.1c0.1,0.5,0.6,1,1.2,1c0.4,0.4,1.1,1,2,1.2c0.3,0.1,0.6,0.1,0.8,0.1c1.5,0.2,0.6,1.2,1.2,1.2
	c1.8,0.1,3.2,0.7,4,1.1c0.5,0.2,1.4,0.6,2.2,1.2c1.8,1.3,2.8,3.2,3.3,4.6c0.2,0.7,0.4,1.8,0.4,3.1c0,1.6-0.3,2.8-0.7,4.1
	C341.8,69,341.3,71,338.9,73.9z"/>
<path class="st8" d="M327.1,77h0.5c0.1,0,0.2,0,0.3,0.1c0.1,0.1,0.2,0.2,0.2,0.4c0.2,1.7,0.2,3.5,0.1,5.2l0,0c3.1-1,5.2-4.1,4.8-7.4
	C331.1,76,329.2,76.6,327.1,77L327.1,77z"/>
<path class="st4" d="M277.1,108.4c2.4,3.5,5.5,6.5,8.9,8.9c2.5,1.7,5.4,2.7,8.4,3c0.4,0,0.8,0,1.2-0.1c0.6-0.2,1.2-0.6,1.6-1.1
	c1.3-1.5,2-3.4,2.2-5.3c0.2-5.1-5.3-8.1-5.3-8.1s-12.6-4-14.1-3.4c-0.8,0.3-1.6,2.1-2.1,3.7C277.4,107.3,277.1,108.4,277.1,108.4z"
	/>
<path class="st4" d="M332.6,132.3L332.6,132.3c-4.9-1.7-7.5-7.1-5.7-12.1l8.5-24.1c1.7-4.9,7.1-7.5,12.1-5.8l0,0
	c4.9,1.7,7.5,7.1,5.7,12.1l-8.5,24.1C342.9,131.5,337.5,134,332.6,132.3z"/>
<path class="st6" d="M277.1,108.4c2.4,3.5,5.5,6.5,8.9,8.9c2.5,1.7,5.4,2.7,8.4,3c0.4,0,0.8,0,1.2-0.1l0.5,0.1
	c3.8,0.8,8.8-2.1,12.3-4.7v-0.1l-1.3-7.7c-2.3,2.4-5,4.3-7.9,5.8c-2.1,1.1-4.4,1.6-6.7,1.3c-0.6-0.1-1.2-0.3-1.8-0.6
	c-4.7-2.2-9-5.1-13-8.5C277.4,107.3,277.1,108.4,277.1,108.4z"/>
<path class="st4" d="M330.1,109.7l-20.8-11.3l-8,9.1c0,0,26.2,26.4,33.9,25.4c7.7-1,4.5-9.2,4.5-9.2S342.6,114.8,330.1,109.7z"/>
<path class="st3" d="M283.7,86.2c-2.2,0.3-4.6,0.9-5.9,2.8c-0.5,0.7-0.8,1.6-0.8,2.4c-0.4,3.6,1.7,7,3.7,10c0.8,1.3,1.9,2.4,3.2,3.2
	c0.7,0.3,1.5,0.5,2.3,0.5c5.9,0.7,11.9-0.1,17.4-2.3c0.9-0.2,1.4-1,1.4-1.9c0.4-1.7,0.3-3.4-0.1-5.1c-0.3-1-0.7-1.9-1.3-2.8
	c-1.6-2.9-3-7.4-6.9-7.4C292.4,85.5,288.1,85.7,283.7,86.2z"/>
<linearGradient id="SVGID_1_" gradientUnits="userSpaceOnUse" x1="183.4169" y1="253.2827" x2="190.9769" y2="332.9127" gradientTransform="matrix(1.3798 0 0 -1.3798 31.4735 484.3004)">
	<stop  offset="1.000000e-02" style="stop-color:#000000"/>
	<stop  offset="0.13" style="stop-color:#000000;stop-opacity:0.69"/>
	<stop  offset="0.25" style="stop-color:#000000;stop-opacity:0.32"/>
	<stop  offset="1" style="stop-color:#000000;stop-opacity:0"/>
</linearGradient>
<path class="st9" d="M282.3,89.4c-1.8,0-3.5,0.8-4.6,2.2c-0.4,0.6-0.6,1.2-0.6,1.9c-0.3,2.8,1.4,5.5,2.9,7.8
	c0.6,1.1,1.5,1.9,2.5,2.5c0.6,0.2,1.2,0.4,1.8,0.4c4.7,0.5,9.4-0.1,13.7-1.8c0.3-0.1,0.5-0.2,0.7-0.4c0.2-0.3,0.4-0.7,0.4-1
	c0.3-1.3,0.3-2.7,0-4c-0.2-0.8-0.6-1.5-1-2.2c-1.3-2.3-2.3-5.9-5.4-5.9C289.2,88.9,285.8,89.1,282.3,89.4z"/>
<path class="st5" d="M306.1,93.9c0-0.2-0.2-0.4-0.2-0.6c-0.5-1.5-1.6-2.7-2.9-3.5c-1.3-0.4-2.6-0.5-3.9-0.1l-5.2,0.8
	c-0.2,0-0.4,0.1-0.6,0.2c-0.2,0.1-0.4,0.3-0.5,0.6c-0.8,1.4-0.6,3.1,0.4,4.4c0.3,0.3,0.6,0.7,0.9,1.1c0.2,0.6,0.2,1.1,0.2,1.7
	c0.4,1.8,1.7,3.3,3.5,3.9c1.7,0.6,3.4,1.4,4.9,2.3c0.4,0.4,0.9,0.7,1.4,1c0.8,0.3,1.7,0.4,2.6,0.2c0.4,0,0.7-0.1,1.1-0.3
	c0.2-0.2,0.4-0.5,0.5-0.9c0.7-2.1,1.1-3.2,0.4-5.3c-0.6-1.7-2.2-3.7-2.3-5.5c0.1-2.2,0-4.3-0.3-6.5c-0.2-0.8-0.5-1.6-1.3-1.7
	c-0.6-0.1-1.1,0.2-1.4,0.7c-0.3,0.5-0.5,0.9-0.6,1.5c-0.2,0.9-0.7,1.7-1.4,2.2"/>
<path class="st5" d="M284,98.8c0.2,0.7,0.3,1.4,0.2,2.1c-0.1,0.7-0.4,1.3-1,1.7c-0.9,0.4-2,0-2.8,0.6c-0.5,0.4-0.8,0.8-1.1,1.4
	c-0.3,0.5-0.8,0.9-1.4,0.9c-0.3-0.1-0.6-0.2-0.8-0.4c-1.5-1.5-2.5-3.4-2.8-5.4c-0.4-2.4-0.4-4.8,0-7.1c0.3-2.2,1.1-1.9,2.6-0.9
	c1.5,1,3.6,1.1,5,2.5C283.1,95.4,283.8,97,284,98.8z"/>
<path class="st4" d="M288.2,86.7l-7.1-35.5l8.2,35.5C289.3,86.7,290.1,87.4,288.2,86.7z"/>
<circle class="st10" cx="281.2" cy="52" r="2.1"/>
<path class="st3" d="M129.6,62.8c0,0,16.9-5.2,19.7-3.8c2.8,1.4,1.9,6,1.9,6h2c0,0-1.2-4.9,1-5.8c2.2-0.9,6.1-0.9,7.7,0.2
	s0.8,5.6,0.8,5.6h1.7c0,0-0.2-5,0.5-5.4s8.1,1.4,13.2,4.8c3.6,2.4-6.6-5.3-12.9-10.1c-3-2.2-6.7-3.2-10.4-2.6l0,0
	c-2.6,0.4-5.2,1.2-7.6,2.4L129.6,62.8z"/>
<path class="st4" d="M187.1,67.5l-1.5,0.9l-1.1,0.6c0,0-17.6-13.5-26-14.2c-5.1-0.4-20.2,5.3-27.2,8.1l0,0c-2.2,0.9-3.6,1.5-3.6,1.5
	l-0.9-3.5c0,0,16.7-8.7,19.7-12.3c0.2-0.2,0.3-0.4,0.4-0.6c1.4-3.1-14.4-19.5-14.4-19.5l0.6-1.2l0.2-0.4l1.7,1.1l0,0
	c4.6,3.1,17,11.2,18.1,11.9c1.4,0.9,4.7,2,11.7,1.4c5.9-0.5,23-7.9,23-7.9l1.2,0.7l2.1,1.2c0,0-17.3,7.3-21,11.6
	c-0.6,0.9-0.6,2-0.1,2.9l0,0C172.7,56.2,187.1,67.5,187.1,67.5z"/>
<path class="st3" d="M129.5,24.4c0,0-16.6,8.8-16.9,10.9s17.1-7,18.5-6.9c1.3,0.1,2.6,0,3.9-0.4c0.5-0.3,0.8-1,1.4-1.8
	s14.8-7.6,14.3-8.5c-0.4-1-18.2,5.8-18.2,5.8C131.4,23.3,130.3,23.6,129.5,24.4z"/>
<path class="st3" d="M192.1,31.8c0,0,14.9,11.4,14.8,13.4c-0.1,2-15.8-9.7-17.1-9.8c-1.3-0.1-2.6-0.4-3.8-1c-0.5-0.4-0.6-1.1-1.1-2
	c-0.5-0.8-13.4-9.9-12.8-10.7c0.6-0.9,17.1,8.6,17.1,8.6S191.4,30.4,192.1,31.8z"/>
<path class="st3" d="M189.6,69.5c0,0,16.6-8.8,16.8-10.8s-17.2,7-18.5,6.9c-1.3-0.1-2.6,0-3.9,0.4c-0.5,0.3-0.8,1-1.4,1.8
	c-0.6,0.7-14.8,7.6-14.3,8.5c0.4,1,18.3-5.8,18.3-5.8C187.7,70.6,188.8,70.3,189.6,69.5z"/>
<path class="st3" d="M125.2,63c0,0-15-11.4-14.8-13.4s15.8,9.7,17.1,9.8c1.3,0.1,2.6,0.4,3.8,1c0.5,0.4,0.7,1.2,1.1,2
	s13.3,9.9,12.8,10.7c-0.6,0.9-17.1-8.6-17.1-8.6S125.9,64.4,125.2,63z"/>
<path class="st11" d="M146.5,48.6c0.2-0.2,0.3-0.4,0.4-0.6c1.4-3.1-14.4-19.5-14.4-19.5l0.6-1.2l1.9,0.7l0,0
	c0.8,0.8,13.7,13.6,14.7,16.1C150.6,46,148.1,47.7,146.5,48.6z"/>
<path class="st11" d="M191.3,35.5c0,0-17.3,7.3-21,11.6c-0.6,0.9-0.6,2-0.1,2.9c-0.3-0.2-3.9-3.1-0.4-6.2c3.5-3.1,17-8.5,19.3-9.5
	L191.3,35.5z"/>
<path class="st11" d="M185.6,68.4l-1.1,0.6c0,0-17.6-13.5-26-14.2c-5.1-0.4-20.2,5.3-27.2,8.1l0,0v-1.8c0,0,20.3-10.7,24.7-10.4
	c4.4,0.3,6.8,0.2,14.4,6.1C177.1,62.1,184.1,67.2,185.6,68.4z"/>
<rect x="149.2" y="64" class="st3" width="17.1" height="3.3"/>
</svg>
