<svg id="Layer_1" data-name="Layer 1" xmlns="http://www.w3.org/2000/svg" viewBox="0 0 62.9 107.22"><defs><style>.cls-1{fill:#f7931e;}.cls-2{fill:#1b1464;}</style></defs><path class="cls-1" d="M84.35,101.67a2.05,2.05,0,0,1,0-1.1,8.08,8.08,0,0,0,.1-1.6v-2.3a.55.55,0,0,0-.3-.5,3.43,3.43,0,0,1-1.7-3.7,3.73,3.73,0,0,1,3.1-2.9h.1V83.87H65.85V67.27l9.4-1.8v11.6h10.4V51.87H55.15v43.2H75v23c-4.7-4.7-10.4-8.4-9.3-16.3H55c0,2.2.1,4.4.3,6.5.8,5.1,3.7,9,7,12.6,6.5,7.1,14.4,12.3,22.7,16.9.2,0,.4.1.7.1V102.92A2.19,2.19,0,0,1,84.35,101.67Z" transform="translate(-54.95 -30.76)"/><path class="cls-2" d="M117.75,58.47l.1-6.6H87.05V89.53a4,4,0,0,1,3.6,3,3.65,3.65,0,0,1-1.8,3.6.76.76,0,0,0-.2.4v4.6a1.83,1.83,0,0,1-1.6,1.77v35c7.7-4.2,14.9-8.7,21-14.8a45.28,45.28,0,0,0,7-8.7,17.35,17.35,0,0,0,2.7-8.2c.2-15.7,0-31.4.1-47A2.2,2.2,0,0,0,117.75,58.47Zm-12.4,51.3c-2.3,2.7-4.7,5.4-7.1,8l-.6-.4V65.17c3.2.6,6.2,1.2,9.4,1.8v2.4c0,11.5-.1,23.1,0,34.6A8.14,8.14,0,0,1,105.35,109.77Z" transform="translate(-54.95 -30.76)"/><path d="M76.35,48.17h-6.9c0-4.4-.2-8.7.1-13,.2-2.5,3.5-4.2,7.9-4.3,7.2-.1,14.4-.2,21.5,0,5.5.1,8.1,2.3,8.1,6.2v11h-7c0-3.2-.2-6.4.1-9.7.2-2.5-1.1-3.2-4.5-3.1-5.5.2-10.9.1-16.4,0-2.2,0-3,.5-3,2.1C76.45,41,76.35,44.57,76.35,48.17Z" transform="translate(-54.95 -30.76)"/></svg>