<svg id="Layer_1" data-name="Layer 1" xmlns="http://www.w3.org/2000/svg" xmlns:xlink="http://www.w3.org/1999/xlink" viewBox="0 0 800 600"><defs><style>.cls-1,.cls-10,.cls-13,.cls-16,.cls-18,.cls-29,.cls-3,.cls-30,.cls-34,.cls-39,.cls-4,.cls-40,.cls-41,.cls-42,.cls-43,.cls-44,.cls-45,.cls-5,.cls-50,.cls-51,.cls-8{fill:none;}.cls-2,.cls-9{fill:#ddd;}.cls-3,.cls-7,.cls-8{stroke:#ededed;}.cls-10,.cls-13,.cls-16,.cls-18,.cls-22,.cls-3,.cls-30,.cls-31,.cls-34,.cls-4,.cls-45,.cls-48,.cls-5,.cls-50,.cls-51,.cls-6,.cls-7,.cls-8{stroke-linecap:round;stroke-linejoin:round;}.cls-3,.cls-5{stroke-width:2px;}.cls-4,.cls-5,.cls-51,.cls-6,.cls-9{stroke:#ddd;}.cls-22,.cls-6,.cls-7{fill:#f9f9f9;}.cls-29,.cls-32,.cls-43,.cls-44,.cls-9{stroke-miterlimit:10;}.cls-10{stroke:#f9f9f9;}.cls-11{fill:#febd9d;}.cls-12{fill:#c47b6a;}.cls-13,.cls-29,.cls-31{stroke:#b25e47;}.cls-13,.cls-16,.cls-18,.cls-30,.cls-31,.cls-32,.cls-34,.cls-45,.cls-48,.cls-50,.cls-51{stroke-width:0.75px;}.cls-14,.cls-31,.cls-48{fill:#fff;}.cls-15{fill:#7d7baa;}.cls-16{stroke:#83addf;}.cls-17{fill:#d9d4db;}.cls-18{stroke:#91613d;}.cls-19{fill:#a7a7c6;}.cls-20{fill:#914839;}.cls-21{fill:#f5931c;}.cls-22,.cls-50{stroke:#f5931c;}.cls-23{fill:#a0503d;}.cls-24{fill:#2b2928;}.cls-25{fill:#683f1d;}.cls-26{fill:#604730;}.cls-27{fill:#444241;}.cls-28{fill:#b57724;}.cls-30{stroke:#514b44;}.cls-32,.cls-33{fill:#b25e47;}.cls-32,.cls-34,.cls-48{stroke:#934735;}.cls-35{fill:#f7ad2b;}.cls-36{fill:#fcc71f;}.cls-37{fill:#161152;}.cls-38{clip-path:url(#clip-path);}.cls-39,.cls-40,.cls-41,.cls-42,.cls-43{stroke:#fff;}.cls-39{stroke-miterlimit:10;}.cls-40{stroke-miterlimit:10;}.cls-41{stroke-miterlimit:10;}.cls-42{stroke-miterlimit:10;}.cls-44{stroke:#683f1d;}.cls-45{stroke:#f7ad2b;}.cls-46{fill:#fed81d;}.cls-47{fill:#473526;}.cls-49{fill:#ededed;}</style><clipPath id="clip-path"><path class="cls-1" d="M330.58,498.81H228.17S224,448,230.25,420.9a218.32,218.32,0,0,1,10-31.89,148.29,148.29,0,0,1,6.1-13.63l75.82,4.12c.76,3.06,1.45,6.24,2.09,9.51C333.17,435.07,330.58,498.81,330.58,498.81Z"/></clipPath></defs><g id="background"><path class="cls-2" d="M363.43,154.36a2.86,2.86,0,1,1-2.87-2.85h0A2.86,2.86,0,0,1,363.43,154.36Z"/><line class="cls-3" x1="376.68" y1="154.36" x2="432.2" y2="154.36"/><path class="cls-2" d="M363.43,167.59a2.86,2.86,0,1,1-2.86-2.86h0a2.86,2.86,0,0,1,2.86,2.84Z"/><line class="cls-3" x1="376.68" y1="167.59" x2="398.08" y2="167.59"/><path class="cls-2" d="M199.31,154.36a2.86,2.86,0,1,1-2.87-2.85h0A2.86,2.86,0,0,1,199.31,154.36Z"/><line class="cls-3" x1="212.57" y1="154.36" x2="286.54" y2="154.36"/><circle class="cls-2" cx="196.45" cy="167.59" r="2.86"/><line class="cls-3" x1="212.57" y1="167.59" x2="248.38" y2="167.59"/><path class="cls-2" d="M199.31,181.06a2.86,2.86,0,1,1-2.87-2.85h0A2.86,2.86,0,0,1,199.31,181.06Z"/><line class="cls-3" x1="212.57" y1="181.06" x2="259.19" y2="181.06"/><rect class="cls-4" x="352.59" y="123.2" width="122.54" height="14.99"/><rect class="cls-4" x="191.61" y="123.2" width="122.54" height="14.99"/><rect class="cls-3" x="140" y="94.52" width="497.17" height="317"/><rect class="cls-5" x="131.72" y="411.92" width="513.72" height="13.86"/><rect class="cls-5" x="131.72" y="80.66" width="513.72" height="13.86"/><path class="cls-6" d="M565.39,140.18c-23.23-9.5-34.75,17.13-26,33.86,2.06,3.92,1.76,7.11-.19,11.87s-2,8.16,3.27,10.3,7.6-.3,9.55-5.06,4-7.24,8.18-8.6C578.18,176.75,588.63,149.68,565.39,140.18Z"/><path class="cls-4" d="M545.08,191.08c-1.35-5.67-.9-9.61,3.16-10.57s7.32-3.26,5.54-6.23-9.16-3.66-7.14-.06,12.65,2.31,10.16-1.21-8.43-6.44-6-7,9.86,2.8,7.46.18c-4.82-5.25.81-6.36,2.36-12"/><path class="cls-7" d="M555,189.42a30.55,30.55,0,0,0-2.12,4.34,22.21,22.21,0,0,1-1.6,3.29c-2.22,3.73-5.19,5.22-10.44,3.08s-6.3-5.29-5.27-9.5a22.55,22.55,0,0,1,1.16-3.48,33.13,33.13,0,0,0,1.53-4.57A49.41,49.41,0,0,0,555,189.42Z"/><path class="cls-7" d="M555,189.42a26.85,26.85,0,0,0-1.91,3.88c-.08.15-.14.31-.21.46a22.21,22.21,0,0,1-1.6,3.29c-2.15.48-4.91.08-8.59-1.43s-5.93-3.15-7.12-5a22.55,22.55,0,0,1,1.16-3.48l.18-.47a29.36,29.36,0,0,0,1.35-4.1A49.44,49.44,0,0,0,555,189.42Z"/><path class="cls-7" d="M555,189.42a26.85,26.85,0,0,0-1.91,3.88,43.47,43.47,0,0,1-16.18-6.62,29.36,29.36,0,0,0,1.35-4.1A49.41,49.41,0,0,0,555,189.42Z"/><line class="cls-5" x1="569.34" y1="133.95" x2="573.73" y2="123.2"/><line class="cls-5" x1="586.4" y1="150.45" x2="596.97" y2="148.93"/><line class="cls-5" x1="539.36" y1="135.8" x2="529.91" y2="125.67"/><line class="cls-8" x1="554.47" y1="131.55" x2="554.47" y2="124.41"/><line class="cls-8" x1="529.88" y1="152.83" x2="521.95" y2="153.97"/><line class="cls-8" x1="582.32" y1="172.6" x2="585.24" y2="177.61"/><line class="cls-8" x1="580.26" y1="142.1" x2="585.97" y2="139.39"/><path class="cls-9" d="M180.6,189.72H157.18a46.94,46.94,0,0,0,1.66,26.55l24.55-.39S176.77,201.5,180.6,189.72Z"/><line class="cls-10" x1="175.32" y1="196.34" x2="163.4" y2="196.34"/><line class="cls-10" x1="174.56" y1="201.51" x2="165.55" y2="201.51"/><line class="cls-10" x1="175.14" y1="206.44" x2="162.65" y2="206.44"/><path class="cls-4" d="M162.8,150.6h22.54a31,31,0,0,1-3.92,23.08l-24.39-1S164.47,162,162.8,150.6Z"/><line class="cls-4" x1="166.92" y1="155.99" x2="181.64" y2="155.99"/><line class="cls-4" x1="167.13" y1="160.93" x2="178.88" y2="160.93"/><line class="cls-4" x1="166.92" y1="167.39" x2="172.47" y2="167.39"/><line class="cls-4" x1="173.73" y1="167.39" x2="177.42" y2="167.39"/><path class="cls-8" d="M218.33,224.56l22.55.05A31,31,0,0,1,237,247.68l-24.38-1S220,235.94,218.33,224.56Z"/><line class="cls-8" x1="222.45" y1="229.96" x2="237.17" y2="229.96"/><line class="cls-8" x1="222.66" y1="234.89" x2="234.41" y2="234.89"/><line class="cls-8" x1="222.45" y1="241.35" x2="228" y2="241.35"/><line class="cls-8" x1="229.26" y1="241.35" x2="232.95" y2="241.35"/><path class="cls-8" d="M406,236.12h22.54a31,31,0,0,1-3.92,23.07l-24.39-1S407.66,247.5,406,236.12Z"/><line class="cls-8" x1="410.11" y1="241.52" x2="424.83" y2="241.52"/><line class="cls-8" x1="410.32" y1="246.45" x2="422.07" y2="246.45"/><line class="cls-8" x1="410.11" y1="252.91" x2="415.66" y2="252.91"/><line class="cls-8" x1="416.92" y1="252.91" x2="420.61" y2="252.91"/><path class="cls-4" d="M482,148.47l-22.54.05a31,31,0,0,0,3.92,23.07l24.39-1S480.35,159.85,482,148.47Z"/><line class="cls-4" x1="477.9" y1="153.87" x2="463.18" y2="153.87"/><line class="cls-4" x1="477.69" y1="158.8" x2="465.95" y2="158.8"/><line class="cls-4" x1="477.9" y1="165.26" x2="472.35" y2="165.26"/><line class="cls-4" x1="471.09" y1="165.26" x2="467.4" y2="165.26"/><line class="cls-8" x1="333.99" y1="120.44" x2="333.99" y2="356.45"/></g><g id="Man"><g id="hand"><path class="cls-11" d="M451.69,179.9c-5.47-16.2-7.88-22-11-25.51s-11.95-7.24-11.95-7.24-3.68-14.26-8.39-13.8,3.1,19.43,3.1,19.43l-4.14,18.62a29,29,0,0,1,3.11,7C425.64,189,434.47,190,436.9,198.86,436.75,198.35,451.64,189.43,451.69,179.9Z"/><path class="cls-12" d="M451.69,179.9c-5.47-16.2-7.88-22-11-25.51s-11.95-7.24-11.95-7.24-3.68-14.26-8.39-13.8,3.1,19.43,3.1,19.43l-4.14,18.62a29,29,0,0,1,3.11,7C425.64,189,434.47,190,436.9,198.86,436.75,198.35,451.64,189.43,451.69,179.9Z"/><path class="cls-13" d="M440.7,154.39c-3.1-3.57-11.95-7.24-11.95-7.24s-3.68-14.26-8.39-13.8,3.1,19.43,3.1,19.43l-4.14,18.62"/><path class="cls-12" d="M414.64,164.11c3.89-3.08,10.56,8.2,6.53,11.28C418.28,177.6,410.94,167,414.64,164.11Z"/><path class="cls-13" d="M428.75,147.15c-3.1-1.22-3.49,4-.78,6s4.44,2.42,4.83,3.68S434,162,434,162a18.77,18.77,0,0,0,1.31,15.28"/><path class="cls-12" d="M417.55,157.66c3.89-3.08,12.13,11,8.1,14.06C422.77,173.92,413.85,160.58,417.55,157.66Z"/><path class="cls-12" d="M420.93,153.1c3.89-3.08,12.14,11,8.11,14.06C426.16,169.36,417.24,156,420.93,153.1Z"/><path class="cls-14" d="M437.45,209.12l-5.25-10.25s12.84-8.79,19.49-19l4.41,7.39S450.83,210.43,437.45,209.12Z"/><path class="cls-15" d="M514.2,258.52c-17.91-25.81-40.85-51.21-44.11-54.76a10.7,10.7,0,0,0-6.8-3.7l-8-14.21s-8.73,13-23.09,20l7.26,13.92s-2.22,1.69,2.66,11.94,23.77,49.4,33.32,57.17C498.28,307.46,537.74,292.45,514.2,258.52Z"/><line class="cls-16" x1="451.09" y1="211.83" x2="443.01" y2="198.87"/><line class="cls-16" x1="446.27" y1="215.05" x2="438.33" y2="202.32"/><line class="cls-16" x1="451.69" y1="190.44" x2="460.21" y2="204.11"/><line class="cls-16" x1="447.42" y1="194.75" x2="455.95" y2="208.42"/><path class="cls-16" d="M514.2,258.52c-17.91-25.81-40.85-51.21-44.11-54.76a10.7,10.7,0,0,0-6.8-3.7l-8-14.21"/></g><g id="body"><path class="cls-17" d="M681.19,503.08H582.31V425.17l88.43-1.23C677.55,452.67,681.19,503.08,681.19,503.08Z"/><path class="cls-18" d="M630.45,503.08s-3.24-31.38-3.57-34.37a3.64,3.64,0,0,0-3.08-3.16,14.28,14.28,0,0,0-5.75,0"/><path class="cls-15" d="M688.31,313.83c-1.58,26.09-7,66.65-10.75,92.49-2.11,14.55-3.66,24.44-3.66,24.44s-63.27,2.46-80.46,2-19.07-1.73-19.07-8.66.29-93.47.29-93.47-84.88-30-97.1-40.19,2.41-43.68,33.83-36.81c7.9,1.73,15.75,3.49,23.77,5.26C559,264.18,584.29,269.5,616,274c34.44,4.92,56,5.2,70.72,14.88C688.9,290.31,689.15,300.06,688.31,313.83Z"/><path class="cls-19" d="M665.46,340.06c-13.37,8.48-13.4,20.41-8.17,29.65,12.06,21.27-23,7.45-24.51,33.83l50.76-12.06Z"/><path class="cls-15" d="M706.87,322a76.36,76.36,0,0,0-18.56-8.13c-10.79-3-21.2-2.37-28.11,4.75a21.91,21.91,0,0,0-3.21,4.21c-17.31,29-65.71,23.71-74.68-6.87-7.63-26-19.4-42.16-47.15-57C559,264.18,584.29,269.5,616,274c34.44,4.92,56,5.2,70.72,14.88C693.54,291.76,700.65,304.94,706.87,322Z"/><path class="cls-16" d="M619.23,272.11c-11.28,0-20.43,7.21-20.43,16.09,0,5,2.9,9.48,7.46,12.43a22.07,22.07,0,0,0,7.21,3,24.82,24.82,0,0,0,5.76.65h1.27a24.51,24.51,0,0,0,7.93-1.69,20.24,20.24,0,0,0,6.49-4,14.15,14.15,0,0,0,4.76-10.33C639.68,279.32,630.53,272.11,619.23,272.11ZM626,296a22.6,22.6,0,0,1-6.16,1h-.61a22.75,22.75,0,0,1-4.87-.5,18.33,18.33,0,0,1-5.84-2.22c-2.9-1.75-4.7-4.21-4.7-6.93,0-5.34,6.9-9.66,15.41-9.66s15.42,4.32,15.42,9.66c0,2.35-1.34,4.5-3.58,6.18A16.25,16.25,0,0,1,626,296Z"/><path class="cls-14" d="M609.07,268c-3.82.73-8.07,2-10.2,5.66s-2.23,18.91-.28,20.58,4.55-6.31,16.18-10.2Z"/><path class="cls-14" d="M624.55,284.76,636.42,266s6.3,3.34,7.32,9.37S642,301.17,637,296.16C633.45,292.66,634.25,289.77,624.55,284.76Z"/><line class="cls-16" x1="606.26" y1="300.63" x2="608.52" y2="294.25"/><line class="cls-16" x1="613.47" y1="303.64" x2="614.36" y2="296.47"/><line class="cls-16" x1="620.5" y1="304.26" x2="619.84" y2="296.96"/><line class="cls-16" x1="628.43" y1="302.57" x2="626" y2="295.98"/><line class="cls-16" x1="634.92" y1="298.53" x2="631.07" y2="293.5"/><path class="cls-12" d="M638.22,268.54c.09,2.34-4.68,17.72-17.92,19s-15.18-13.14-15.1-16.93c0-1.53.17-4.23.36-7.61.26-4.64.61-10.55.87-16.41l.06-1.28c1.46-34,30.65-27.21,28.83-9.19C634.21,247.23,638.11,266.21,638.22,268.54Z"/><path class="cls-20" d="M605.56,263c.26-4.64.61-10.55.87-16.41l16.17-2.5C623.19,254.4,618.21,263.27,605.56,263Z"/><path class="cls-16" d="M671,388.76a2.9,2.9,0,0,0-.16-.61c-4.53-18.21-8.29-37.26-9.87-53.89"/><path class="cls-21" d="M597,365.9c-1.46-6.34,2.36-8.2,5.69-9.34-.31-1.79.35-4.69,4.32-5.31,3.76-.59,5.11,3.11,5.11,3.11s7.91-2.68,9.91,5.37Z"/><polygon class="cls-22" points="577.79 367.67 637.54 353.86 660.2 449.87 599.93 462 577.79 367.67"/><path class="cls-6" d="M605,356.12a2.69,2.69,0,1,0,2.7-2.68h0A2.7,2.7,0,0,0,605,356.12Z"/></g><g id="upper_hand" data-name="upper hand"><path class="cls-15" d="M725,408.33h0a51.66,51.66,0,0,1-.26,5.7v.28a8.58,8.58,0,0,1-.26,1.14c-2.44,8-17.88,15.55-32.22,7.25a30.42,30.42,0,0,1-3.6-2.45,42.84,42.84,0,0,1-11.11-14A80.51,80.51,0,0,1,671,388.76a2.9,2.9,0,0,0-.16-.61c-6-24.28-10.72-50.06-10.68-69.57,0-23.52,6.93-37.94,26.56-29.68,6.78,2.86,13.89,16,20.11,33.06a344.77,344.77,0,0,1,12.71,45.27C723,383.2,725,398.18,725,408.33Z"/><path class="cls-19" d="M724.78,414.06v.28a8.58,8.58,0,0,1-.26,1.14c-2.44,8-17.88,15.55-32.22,7.25a30.42,30.42,0,0,1-3.6-2.45,26.16,26.16,0,0,1,14.2-2.83c26.39,2.38-1.61-26.77,16.71-50.22,3.37,16,5.43,30.95,5.46,41.1h0A24.44,24.44,0,0,1,724.78,414.06Z"/><path class="cls-15" d="M706.87,322a76.36,76.36,0,0,0-18.56-8.13c-10.79-3-21.2-2.37-28.11,4.75,0-23.52,6.93-37.94,26.56-29.68C693.54,291.76,700.65,304.94,706.87,322Z"/></g><g id="hand-2"><path class="cls-12" d="M607.07,408.76c-1.63-1-11.28-6.58-14.08-6.76s-8.77,3.95-8.77,3.95-11.85.7-13.16,2.81,1.35,5.08,3.39,6.14.12,3.24.38,5,2.46,3,2.72,4.21-.88,4.51,1.84,5.32,1,2.48,2.37,4.85,9.74,1.93,31-2.28Z"/><path class="cls-13" d="M593,402c-2.81-.17-8.77,3.95-8.77,3.95s-11.85.7-13.16,2.81,1.35,5.08,3.39,6.14.12,3.24.38,5,2.46,3,2.72,4.21-.88,4.51,1.84,5.32,1,2.48,2.37,4.85c.55.93,2.18,1.43,5.24,1.43"/><polygon class="cls-14" points="605.58 406.84 609.85 434.16 618.86 432.83 616.06 406.17 605.58 406.84"/><path class="cls-15" d="M724.75,414.34c-.08.38-.16.77-.26,1.14-2.38,9.37-12.42,15.43-39.94,17.35-2.4.17-4.78.33-7.13.46-32.64,1.94-60.87,1.38-60.87,1.38l-4.25-29.19c14.8-4.39,39.39-12.71,58.74-16.72,8-1.65,15.05-2.58,20.2-2.2a80.82,80.82,0,0,1,17.34,2.85A36.36,36.36,0,0,1,713,391c6.62,3,11.07,7.72,11.91,15.42.07.64.12,1.28.17,1.89h0A25.37,25.37,0,0,1,724.75,414.34Z"/><path class="cls-16" d="M691.24,386.56c-5.15-.38-12.23.55-20.2,2.2-19.35,4-43.94,12.33-58.74,16.72l4.25,29.19"/><line class="cls-16" x1="612.81" y1="408.94" x2="630.13" y2="406.17"/><line class="cls-16" x1="613.63" y1="414.55" x2="630.46" y2="412.45"/><line class="cls-16" x1="614.25" y1="418.86" x2="630.87" y2="417.45"/><line class="cls-16" x1="615.17" y1="425.18" x2="631.21" y2="423.94"/><line class="cls-16" x1="616.06" y1="430.33" x2="631.79" y2="428.75"/><path class="cls-13" d="M584.22,406c4.29-.44,8.15-.62,8.15-.62"/><path class="cls-19" d="M724.75,414.34a8.58,8.58,0,0,1-.26,1.14c-2.38,9.37-12.42,15.43-39.94,17.35-2.4.17-4.78.33-7.13.46,6.12-15.14,19.71-16.36,25.45-15.84,17.67,1.6,11-10.93,10.09-26.43,6.62,3,11.07,7.72,11.91,15.42.07.64.12,1.28.17,1.89h0A25.72,25.72,0,0,1,724.75,414.34Z"/></g><g id="head"><path class="cls-12" d="M633.41,213.56a69.52,69.52,0,0,1-3.49,14.22c-2.59,6.74-6.78,12.63-13.61,12.58a14.09,14.09,0,0,1-2.15-.2L596,232.71s.08-.35.26-1a51,51,0,0,1,5.55-12.55c.21-.33.44-.66.66-1,4.32-6.55,8.64-11.79,8.64-11.79s.25-6.27,5.37-7.19S634.83,204,633.41,213.56Z"/><path class="cls-23" d="M629.92,227.78c-2.59,6.74-6.78,12.63-13.61,12.58a9.58,9.58,0,1,1,13.61-12.58Z"/><path class="cls-23" d="M603.14,223.63a8.24,8.24,0,0,1-6.85,8.12,51,51,0,0,1,5.55-12.55A8.19,8.19,0,0,1,603.14,223.63Z"/><path class="cls-24" d="M645.15,214.85c-.82,2.34-3.61,9.55-5.15,13.52-.63,1.61-1.06,2.69-1.06,2.69l-4.42-1.61-3.17-1.15-1.12-.4a9.92,9.92,0,0,1-.12,1.29,51.87,51.87,0,0,1-1.75,9,32.63,32.63,0,0,1-4.83,10.22c-6,8-21.58,7.18-28.77,1-5-4.34-4-12.28.35-20.54a58.44,58.44,0,0,1,7.39-10.66s-3.51,8.23-4.08,10c-.69,2.21,1.9,2,2.9.12s2.93-3.18,8.53-1.68,7.88,4.4,6.84,8.45c-.61,2.39,3.83,3.22,7.1.07a9,9,0,0,0,.78-.86,10,10,0,0,0,1.15-1.8c3-6.11,4.75-15.46,4.92-19.14-3.35.21-6.24-2.34-4.34-5.51-3.93,1.65-6.85-1.17-6.18-4.93-1.7,2.67-5.52,2.5-6-.66l-3,4.1a12.76,12.76,0,0,1-.8-4.86c.22-5,4.47-6.82,7.83-5.67.52-3.61,9-4.33,9.62.83,1.82-3.36,7.85-2.67,8,2.52a4.18,4.18,0,0,1,5.72,5.57c2.75-.6,4.51,3,2.14,5.58A3.41,3.41,0,0,1,645.15,214.85Z"/><path class="cls-25" d="M616,219a1.34,1.34,0,1,0,1.34-1.34A1.34,1.34,0,0,0,616,219Z"/><path class="cls-25" d="M607.43,216.13a1.34,1.34,0,1,0,1.35-1.33h0A1.35,1.35,0,0,0,607.43,216.13Z"/><path class="cls-26" d="M618.7,211.94c-.69,2.39,6.32,4.75,6.62,3.29C625.54,214.18,619.72,208.4,618.7,211.94Z"/><path class="cls-26" d="M608.76,208.77c-.41,1.28,5.48,3.49,6.17,1.34C615.75,207.55,609.12,207.67,608.76,208.77Z"/><path class="cls-27" d="M634.52,229.45l-4.29-1.55a51.76,51.76,0,0,1-1.87,10.32c-1.39.21-3-.52-4.57-3a9.54,9.54,0,0,0,1.93-2.66c3-6.11,4.75-15.46,4.92-19.14-3.35.21-6.24-2.34-4.34-5.51-3.93,1.65-6.85-1.17-6.18-4.93-1.7,2.67-5.52,2.5-6-.66l-3,4.1a12.76,12.76,0,0,1-.8-4.86c1.62-1.65,3.84-2.79,5.7-2.22,0,0,4.89,1.18,6.61-1.16-1,3.76,2.89,7.34,7.42,5.8,0,0,1.58,6.83,7.11,6.82,0,0-.6,6.11,2.56,6.67C642.11,217.88,637.28,224.77,634.52,229.45Z"/><path class="cls-27" d="M630.11,229.19a51.87,51.87,0,0,1-1.75,9,32.63,32.63,0,0,1-4.83,10.22c-6,8-21.58,7.18-28.77,1-5-4.34-4-12.28.35-20.54.62,14.29,14.2,22.48,28.68,6.35l.78-.86A45.17,45.17,0,0,1,630.11,229.19Z"/><path class="cls-28" d="M640,228.37c-.63,1.61-1.06,2.69-1.06,2.69l-4.42-1.61-3.17-1.15C636.25,225.05,638.74,226.45,640,228.37Z"/><path class="cls-12" d="M628.54,237.55a50.93,50.93,0,0,0,1.69-9.65c2.76-2.5,7.6-2.42,9.81.36a5.37,5.37,0,0,1,1.11,2.67C642,237,636.93,243.39,628.54,237.55Z"/><path class="cls-13" d="M634.89,239.85a10.92,10.92,0,0,1-6.35-2.3"/><path class="cls-29" d="M605.19,222.19c.44-2.54,1.85-2.54,4.51-3s4.72-2.83,4.43-5.23"/><path class="cls-13" d="M632.05,232a4.07,4.07,0,0,1,5.75-.3,4,4,0,0,1,.8,1"/><path class="cls-13" d="M633.32,231.1c4.54-.43,3.85,6.39-.54,5.13"/><path class="cls-30" d="M614.1,202.32c-.56-2.87,2-6.24,4.07-6.43"/><path class="cls-30" d="M620.12,203c.41-2.28,3.13-7.75,7-8"/><path class="cls-30" d="M626.3,207.91c1-4.44,3.93-9.22,8.59-11.19"/><path class="cls-30" d="M630.64,213.42c.62-4.85,7.33-8.86,10.88-8.61"/><path class="cls-30" d="M629.58,220.56c4.35-3.74,11.89-7.05,15.87-7.32"/><path class="cls-31" d="M605.69,230.1c3.93.85,8.33.39,8.19.57s-.82,6-5.12,5.39S605.69,230.1,605.69,230.1Z"/></g></g><g id="Girl_Mid" data-name="Girl Mid"><g id="hand-3"><path class="cls-32" d="M419.31,244.66c2.7-7.53,6.26-15.17,7.92-14.16,2.81,1.71-2.76,16.35-2.76,16.35Z"/><path class="cls-32" d="M415.83,246.38c0-.47,1.66-22,4.8-21.51,4.26.64.87,22,.87,22Z"/><path class="cls-32" d="M410.69,249.42c-.12-21.57.3-27.12,2.92-27.13,3.62,0,4.09,24.85,4.09,24.85Z"/><path class="cls-32" d="M422.78,248.11c-.63,10.19-.93,15.6-.93,15.6s-9.12,5-9.71-7.24S422.78,248.11,422.78,248.11Z"/><path class="cls-33" d="M370.64,311.5c-12.05,17.87-26.77,42.71-14.88,50.68S383.49,366.9,393,345s21.15-60.08,23.49-63.84,7.78-8.18,11.29-15.44,5.19-7.66,4-9.73-4.15-1.3-5.71,1-5.71,6.75-8,5.45-3.33-3.92-3.37-7.13,1.87-6.66,5.54-5.54,5.36,5.93,8.47,4.24-3.5-8.17-5.84-10.25-4.15-.65-8,.65-5.06,1.43-7,6-9.34,19.53-10.51,22.25S381.93,294.73,370.64,311.5Z"/><path class="cls-34" d="M427.74,265.73c3.5-7.27,5.19-7.66,4-9.73s-4.15-1.3-5.71,1-5.71,6.75-8,5.45-3.33-3.92-3.37-7.13,1.87-6.66,5.54-5.54,5.36,5.93,8.47,4.24-3.5-8.17-5.84-10.25-4.15-.65-8,.65-5.06,1.43-7,6"/><path class="cls-34" d="M367.66,316c-2.07,3.18-4.15,6.5-6.1,9.85"/></g><g id="body-2"><path class="cls-35" d="M185.58,328.49c-3.3,5.13,3.5,9,9.64,13s7.75-14.2,7.75-14.2S187.4,325.66,185.58,328.49Z"/><path class="cls-35" d="M369.27,306.26c2.08,1.56-1,6.75-6.91,12.52l-4.85-6.26S364.42,304.47,369.27,306.26Z"/><path class="cls-33" d="M359.47,307.82c13.84,14.65,29.9,33.93,21.37,48.57S352,363.26,339.63,352C339.63,352,329.6,332.73,359.47,307.82Z"/><path class="cls-33" d="M195.1,328.08c-5.32,11.81-20.71,38.19-4.4,49.07s36.15-27.29,36.15-27.29S220.79,327,195.1,328.08Z"/><path class="cls-21" d="M369.27,306.26a77.75,77.75,0,0,0-25.33,32.16A63.19,63.19,0,0,0,339.63,352c-3.2-2.32-10.76-8-10.76-8-.56,3.53-1.29,7.59-2,11.69-2.19,11.77-4.71,23.77-4.71,23.77H247.35l-1.26-5-9.78-38.76-9.46,14.11c-.19-.23-.38-.45-.59-.66-11-11.89-40.68-20.71-40.68-20.71a202.64,202.64,0,0,1,28.68-37.59,135.93,135.93,0,0,1,10.13-9.35,74,74,0,0,1,16.14-9.74,128.41,128.41,0,0,1,20.33-7.25s.16-15.92,1.9-34.74c.77-8.49,18-10.15,22,4.29s7,23.72,7,23.72a69.77,69.77,0,0,1,13-.69c5.51.22,11.78,1.23,16.69,4.06,2.64,1.53,7.91,6.1,14,11.77C350,286.48,369.27,306.26,369.27,306.26Z"/><path class="cls-36" d="M343.94,338.42A63.19,63.19,0,0,0,339.63,352c-3.2-2.32-10.76-8-10.76-8a164.09,164.09,0,0,0,3.3-33.3,31.7,31.7,0,0,0-3.44-14.16c6.94,3.91,12.7,8.17,9.33,17.45C334.87,322.62,335.36,337,343.94,338.42Z"/><path class="cls-36" d="M271.37,377.45l-25.28-3-9.78-38.72a101,101,0,0,0,7-13.8c10.1,12-11.18,26,21.93,33.3C281.76,358.89,271.37,377.45,271.37,377.45Z"/><path class="cls-21" d="M335.48,273c-8.77.8-17.29,7.48-22.64,25.33-9.64,32.17-44.88,28.39-57,6.13-9.49-17.44-21.18-19.4-41.6-13.53a135.93,135.93,0,0,1,10.13-9.35,74,74,0,0,1,16.14-9.74,128.41,128.41,0,0,1,20.33-7.25s.16-15.92,1.9-34.74c.77-8.49,18-10.15,22,4.29s7,23.72,7,23.72a69.77,69.77,0,0,1,13-.69c5.51.22,11.78,1.23,16.69,4.06C324.11,262.73,329.38,267.3,335.48,273Z"/><path class="cls-33" d="M304.78,257.14c.16,10.79-9.19,18-19.92,19.69s-28.53.43-44.33-5a128.41,128.41,0,0,1,20.33-7.25s.16-15.92,1.9-34.74c.77-8.49,18-10.15,22,4.29.91,3.25,1.77,6.24,2.54,8.92,1.65,5.65,2.94,9.94,3.7,12.4.48,1.56.75,2.4.75,2.4A70.1,70.1,0,0,1,304.78,257.14Z"/><path class="cls-20" d="M291,255.43c-9.48.76-15-4.86-14.93-12.37h11.23C289,248.73,290.26,253,291,255.43Z"/><path class="cls-37" d="M330.58,498.81H228.17c-15.06-49.3-11.6-70.42-5-80.43A231.77,231.77,0,0,0,240.25,389c2.79-5.72,4.83-10.52,6.1-13.63l75.82,4.12c.73,3.13,1.42,6.3,2.09,9.51A384.2,384.2,0,0,1,330.58,498.81Z"/><g class="cls-38"><circle class="cls-39" cx="245.93" cy="429.22" r="9.51"/><circle class="cls-40" cx="255.45" cy="493.74" r="9.51"/><circle class="cls-40" cx="294.67" cy="431.03" r="9.51"/><circle class="cls-41" cx="302.62" cy="496.48" r="9.51"/><circle class="cls-42" cx="289.67" cy="393.57" r="9.51"/><circle class="cls-43" cx="276.06" cy="461.8" r="5.8"/><circle class="cls-43" cx="330.01" cy="447.23" r="5.8"/><path class="cls-43" d="M331.47,406.25a5.8,5.8,0,1,1-5.8-5.8h0A5.8,5.8,0,0,1,331.47,406.25Z"/><path class="cls-43" d="M235.17,464.84a5.8,5.8,0,1,1-5.8-5.8h0A5.82,5.82,0,0,1,235.17,464.84Z"/><circle class="cls-43" cx="255.45" cy="400.45" r="5.8"/></g><path class="cls-44" d="M259.17,265s12.52,21.62,27.78,30.87c0,0,8.48-12.4,7.09-38.34"/><path class="cls-14" d="M282.81,296.53a4.39,4.39,0,1,0,4.39-4.39,4.38,4.38,0,0,0-4.39,4.39Z"/><path class="cls-45" d="M328.87,344a164.12,164.12,0,0,0,3.3-33.31,31.7,31.7,0,0,0-3.44-14.16c-1.86-4-3.87-7.67-4.29-12.6"/><path class="cls-45" d="M244.59,318.86s-.47,1.22-1.27,3.09a101,101,0,0,1-7,13.8"/><path class="cls-17" d="M324.17,389h-84a148.29,148.29,0,0,1,6.1-13.63l75.9,4.12C322.88,382.56,323.57,385.73,324.17,389Z"/><path class="cls-16" d="M290.8,389v22.87"/><path class="cls-16" d="M292.56,413.42c2.38-1.31,3.75-1.93,4-3.37S298,392.73,298,392.73"/><path class="cls-16" d="M289.67,498.81s.6-63.77,1.1-66.67a.14.14,0,0,1,0-.09c.51-.95,1.54-2.36,7.2-5.67"/><path class="cls-14" d="M165.67,267.58c5.06-1.94,10.57-1.55,17.61,1.81,8.24,3.94,15.38,14.07,11.9,28-.57,2.25-9.33,6.93-10.78,5.9S194.43,273.73,165.67,267.58Z"/></g><g id="head-2"><path class="cls-46" d="M256.52,230.11c-4.48-.43-7.3,1.41-9.39,5.22s-4.73,7.61-4.73,7.61,5.44,2.22,10.75-3.81C258.09,233.51,256.52,230.11,256.52,230.11Z"/><path class="cls-46" d="M259.79,231.85c-5.06,1.35-7.43,3.39-8.34,9.52s-.59,8.94-1.24,11.25c0,0,6.48-1.5,9.58-7.32C262.74,239.73,262,236.16,259.79,231.85Z"/><path class="cls-26" d="M266.17,199.13s-4.88,10.6-5,19.49a16.1,16.1,0,0,0,.88,5.92l-5.41.63c-4.63,4.45-13,2.92-10-2.76-5,3.12-11.55-1.15-8.3-5.66-3.89.92-5.87-5.37-.86-7-4.17-.45-5-7.89.65-8.32a3.76,3.76,0,0,1,.09-5.33,3.82,3.82,0,0,1,2.28-1,3.91,3.91,0,0,1,3.1,1.4c-2.42-8.72,7.81-11.5,11-6.92.55-3.69,7.47-4.07,8.5.69C268.27,187.35,271.67,194.35,266.17,199.13Z"/><path class="cls-47" d="M262.09,224.54l-5.41.63c-4.63,4.45-13,2.92-10-2.76-5,3.12-11.55-1.15-8.3-5.66-3.89.92-5.87-5.37-.86-7-4.17-.45-5-7.89.65-8.32a3.76,3.76,0,0,1,.09-5.33,3.82,3.82,0,0,1,2.28-1c-.36,3.08,1,7.44,4,7.74-4.1,1.51-4.07,6.37,0,8.08-2.55,2.83,1.27,6.81,4.46,4.57-.12,3.12,4.57,8.2,12.15,3.12A16,16,0,0,0,262.09,224.54Z"/><path class="cls-33" d="M292,248.08c-14.53,2-27.21-14.36-27.21-14.36-6.63,2.32-11.77-2.83-9.7-8a5.47,5.47,0,0,1,1.83-2.42h0a5.45,5.45,0,0,1,2.25-1,6.36,6.36,0,0,1,1.9-.07,7.25,7.25,0,0,1,5.7,4.05c.46.8,3.55.66,2.17-2.86-1.21-3.06-2.53-2.83-2.53-2.83,2-.63.41-5.11-2-4.47,2-.86,2.7-4.65.46-6,2.41-.13,5-1.09,4.07-4.76a3.59,3.59,0,0,0,6.32-1.78,3.21,3.21,0,0,0,5.45-2.18c.3,1.35,1.88,1.75,3.13,1a64.14,64.14,0,0,1,7.5,10l.08.13c1.22,1.9,2.37,3.82,3.41,5.73C302.7,232.73,304.77,246.31,292,248.08Z"/><path class="cls-23" d="M274.42,220.78c-.53,1.79-3.78,2.4-7.25,1.37s-5.87-3.32-5.34-5.11,3.78-2.39,7.25-1.36S275,219,274.42,220.78Z"/><path class="cls-23" d="M294.87,218.33c-1.43,1-2.84,1.32-3.76.68-1.39-.94-1.19-3.68.35-6.41C292.68,214.5,293.83,216.42,294.87,218.33Z"/><path class="cls-14" d="M261.06,222.29a6.36,6.36,0,0,0-1.9.07,5.45,5.45,0,0,0-2.25,1h0c-4.62-13.58,7.56-20.49,7.56-20.49C259.83,209.62,260.55,218.73,261.06,222.29Z"/><path class="cls-25" d="M284.81,212.26a1.34,1.34,0,1,0,1.36-1.33,1.32,1.32,0,0,0-1.36,1.3Z"/><path class="cls-25" d="M276.09,215.09a1.34,1.34,0,1,0,1.34-1.34h0A1.34,1.34,0,0,0,276.09,215.09Z"/><path class="cls-26" d="M285,201.13a3.19,3.19,0,0,1-1.13,1.31c-1.25.79-2.83.39-3.13-1a3.22,3.22,0,0,1-3.33,3.09,3.18,3.18,0,0,1-2.12-.91A3.59,3.59,0,0,1,269,205.4c1,3.67-1.66,4.63-4.07,4.76,2.24,1.33,1.49,5.12-.46,6,2.36-.64,4,3.84,2,4.47,0,0,1.32-.23,2.53,2.83,1.38,3.52-1.71,3.66-2.17,2.86a7.14,7.14,0,0,0-7.6-4,22.31,22.31,0,0,1-.39-8.42,19.34,19.34,0,0,1,5.69-11.09c-2.16-3.42,1.91-7.89,5.31-5.31-.44-3.11,4.92-5.08,6.95-1.36,1.17-3.34,6.14-1.3,5.58,1.17C284,196.43,286.17,198.73,285,201.13Z"/><path class="cls-34" d="M280,210.93c3.29,7,8.28,3.19,9.54,8.51"/><path class="cls-48" d="M277.26,222.73c5.7,1.61,9.68.56,10.62,0,0,0,.56,5.06-4.54,4.65A6.49,6.49,0,0,1,277.26,222.73Z"/><path class="cls-34" d="M258.06,228.52c.71-3.59,6.31-3.55,7.35,1.59"/><path class="cls-34" d="M262.57,231.85c-3.13-.81-1.65-5.55,1.77-4.19"/><path class="cls-26" d="M271.41,211.91c-.25,1.67,6-1.94,4.71-4S271.64,210.29,271.41,211.91Z"/><path class="cls-26" d="M287.32,205.78c1.3,1.08-5.77,2.59-6.15.22S286.06,204.73,287.32,205.78Z"/></g><g id="hand-4"><path class="cls-34" d="M226.35,350.86a143.06,143.06,0,0,0-15.4-2.2"/><path class="cls-33" d="M211,348.66c-18.36-1.62-31.86,13.72-23.67,25.48C197.64,389,264,385.21,270.77,385c4.32-.1,4,3.08,10.61,3.7,4,.39,10.12.41,11.41-.24a6.76,6.76,0,0,0,2.27-2.59s3.78,1.51,5.29-2.81c0,0,3.85.87,4.48-4.54,0,0,2.33,2.9,4.48,1.84,2.46-1.21,2.81-3,1.08-5.29s-8.85-10.38-11.22-11.23S279,366.18,276,365.5C260.69,362.09,239.79,351.2,211,348.66Z"/><path class="cls-34" d="M288.64,389a13.54,13.54,0,0,0,4.15-.5,6.76,6.76,0,0,0,2.27-2.59s3.78,1.51,5.29-2.81c0,0,3.85.87,4.48-4.54,0,0,2.33,2.9,4.48,1.84,2.46-1.21,2.81-3,1.08-5.29s-8.85-10.38-11.22-11.23"/><line class="cls-34" x1="305.32" y1="379.1" x2="299.9" y2="373.16"/><line class="cls-34" x1="300.35" y1="383.1" x2="294.67" y2="379.5"/><line class="cls-34" x1="295.06" y1="385.91" x2="291.18" y2="384.72"/></g></g><g id="foreground"><rect class="cls-49" x="77.35" y="498.01" width="639.95" height="21.33" rx="9.89"/><path class="cls-50" d="M96.53,519.34c16.4-7.84,40.73-9.57,59.27,0"/><path class="cls-50" d="M90.87,498c16.17,9,26.92,8.27,46.87,8,14.86-.19,32.75,7.38,44.66,13.33"/><path class="cls-50" d="M167.62,498c11.73,13.19,19.87,14.84,23.81,11.44,4.18-3.61,8.48-4.59,12.92-.78,5.14,4.42,12.29-4.53,16.31-10.66"/><path class="cls-50" d="M213.36,519.34c4.74-4.37,13.19-9.77,26.35-10.67,15.6-1,35.42,6.18,46,10.67"/><path class="cls-50" d="M265.23,498c18.3,9.6,38.3,15.22,54.46,10.66,15.77-4.43,53.43,1.09,67.13-10.66"/><path class="cls-51" d="M334.64,519.34c11.72-6.67,30-10.75,44.22,0"/><path class="cls-50" d="M399,519.34c21.79-16.94,65.29-20,101.62-10.76,43,10.95,62.28-1.69,70.09-10.57"/><path class="cls-50" d="M438.18,519.34c15.78-7.09,37-8.55,59.41,0"/><path class="cls-50" d="M575.73,519.34c26.42-12.3,47.56-10.87,67.16,0"/><path class="cls-50" d="M613,498c43.53,14.62,79.55,25.94,103.28,6.1"/><path class="cls-50" d="M647.72,498c22.09,13,47.89,12,63.77,1.17"/></g></svg>