<?xml version="1.0" encoding="utf-8"?>
<!-- Generator: Adobe Illustrator 24.1.2, SVG Export Plug-In . SVG Version: 6.00 Build 0)  -->
<svg version="1.1" id="Layer_1" xmlns="http://www.w3.org/2000/svg" xmlns:xlink="http://www.w3.org/1999/xlink" x="0px" y="0px"
	 viewBox="0 0 406 306" style="enable-background:new 0 0 406 306;" xml:space="preserve">
<style type="text/css">
	.st0{opacity:0.18;fill:#D9D4DB;enable-background:new    ;}
	.st1{fill:#161152;}
	.st2{opacity:0.18;fill:#161152;enable-background:new    ;}
	.st3{fill:url(#SVGID_1_);}
	.st4{fill:url(#SVGID_2_);}
	.st5{fill:#F5931C;}
	.st6{fill:url(#SVGID_3_);}
	.st7{fill:#3E3E54;}
	.st8{fill:url(#SVGID_4_);}
	.st9{fill:#68E1FD;}
	.st10{fill:url(#SVGID_5_);}
	.st11{fill:url(#SVGID_6_);}
	.st12{fill:#FAFCFC;}
	.st13{fill:url(#SVGID_7_);}
	.st14{fill:url(#SVGID_8_);}
	.st15{fill:url(#SVGID_9_);}
</style>
<path class="st0" d="M356.7,203.4c-5.2-20.6-19.7-38.1-24.3-58.9c-4.2-18.9,0.2-38.5,0.1-57.9c-0.2-27-10.4-55.1-32.1-71.1
	C279.3-0.1,250.8-2,224.7,1.5S173.3,13.3,147.1,16c-11.9,1.2-24.2,1.3-35.5,5.2c-19.2,6.5-33.3,22.6-44.8,39.3
	C58.7,72.3,51.2,85,48.3,99c-6.2,29.3,7.6,59.2,7.2,89.1c-0.2,14.1-3.6,28.3-1.5,42.3c3.6,24.3,23.1,43.4,44.7,55.1
	c30,16.3,65.1,21.6,99.3,20.2C254.9,303.4,378.9,290.5,356.7,203.4z"/>
<path class="st1" d="M114.5,264L114.5,264c-0.7-0.5-1-1.5-0.5-2.2c0,0,0,0,0,0l63.2-97.8l2.7,1.7l-63.2,97.8
	C116.3,264.2,115.3,264.4,114.5,264C114.5,264,114.5,264,114.5,264z"/>
<path class="st2" d="M185.5,268.1c-34.5,0.4-65.4-1.6-99.6,1c10.7,4.1,26.8,10.3,39.2,11.2c55,4,110.5,5.3,165.9,4
	c3.8-0.1,7.7-0.2,10.9-1.4c3.2-1.2,5.5-4,3.9-6.2c-4.5-6.3-38.2-7-47.6-6.9C236.3,270.1,207.4,267.8,185.5,268.1z"/>
<linearGradient id="SVGID_1_" gradientUnits="userSpaceOnUse" x1="253.7551" y1="-47.0759" x2="286.8008" y2="-47.0759" gradientTransform="matrix(0.8 0 0 -0.8 -29.8817 206.1975)">
	<stop  offset="0" style="stop-color:#E5C5D5"/>
	<stop  offset="0.42" style="stop-color:#EAD4D1"/>
	<stop  offset="1" style="stop-color:#F0E9CB"/>
</linearGradient>
<path class="st3" d="M173.5,258.4c-0.3,1.2-0.6,2.6,0,3.7c0.7,1.3,2.6,1.8,4.1,1.4s3.2-1.1,3.9-2.4c3.2-5.6,11-19.5,15.4-29.2
	c1.2-2.7,4-4,1.9-6.1c-5.3-5.3-14.1,3.1-15.7,7.7C180,241.9,175.8,249.8,173.5,258.4z"/>
<linearGradient id="SVGID_2_" gradientUnits="userSpaceOnUse" x1="342.1048" y1="-50.0947" x2="364.3559" y2="-50.0947" gradientTransform="matrix(0.8 0 0 -0.8 -29.8817 206.1975)">
	<stop  offset="0" style="stop-color:#E5C5D5"/>
	<stop  offset="0.42" style="stop-color:#EAD4D1"/>
	<stop  offset="1" style="stop-color:#F0E9CB"/>
</linearGradient>
<path class="st4" d="M256.9,268.3c1.4,1,2.3-3.8,3.9-4.5c2.7-1.2-1.9-31.2-3.6-34.5c-3.4-6.4-13.8-8-13.3,1.9
	C244,235.1,255.5,267.3,256.9,268.3z"/>
<path class="st5" d="M223.3,129.6c-3.8,1.5-6.8,4.6-9.3,7.9c-13.1,17.2-15.6,40.7-28.9,57.8c-3.4,4.4-7.6,8.4-9.5,13.6
	c-3.6,9.8,3.4,21.9,13.6,23.8c3.5,0.6,7.3,0.3,10.4,1.8c3.1,1.6,5.1,4.7,7.7,6.9c7.8,6.5,20.1,3.8,27.7-2.8c2.9-2.6,5.6-5.8,9.3-6.9
	c4.8-1.4,10.1,1,15-0.1c5.5-1.2,9.2-6.9,9.8-12.6c0.6-5.6-1.3-11.2-3.4-16.5c-6.3-15.4-15.5-30-17.4-46.5c-0.8-7.2,0.8-19-4.2-25
	C240.3,126.1,228.6,127.5,223.3,129.6z"/>
<linearGradient id="SVGID_3_" gradientUnits="userSpaceOnUse" x1="303.8275" y1="92.0674" x2="412.1475" y2="-7.6526" gradientTransform="matrix(0.8 0 0 -0.8 -29.8817 206.1975)">
	<stop  offset="0" style="stop-color:#000000;stop-opacity:0"/>
	<stop  offset="0.99" style="stop-color:#000000"/>
</linearGradient>
<path class="st6" d="M246.1,144c-0.5,2.3-1.8,4.8-4.2,5.4c-2.1,0.5-4.4-0.8-6.4,0c-2.9,1.1-3.1,5.3-5.5,7.1c-1.3,1-3.1,1.2-4.7,1.6
	c-4,1.2-7.2,4.3-10.1,7.4c-1.1-4,1.7-7.9,3.2-11.7c1.9-4.6,2-9.6,0.5-14.3c-0.4-1.1-0.8-2.3-1-3.4c-0.2-1.2,0.2-2.4,1.1-3.2
	c0.6-0.4,1.3-0.7,2-0.8c3.4-0.7,7-0.8,10.4-0.2c2.3,0.5,4.6,1,6.9,1.3c2.8,0.2,4.5-0.9,6.9-1.8C246.8,135.4,247,139.8,246.1,144z"/>
<path class="st7" d="M169.4,259.5c-0.8,1.1-1.5,2.3-2.1,3.5c-0.4,0.7-0.6,1.6-0.5,2.4c0.3,1,0.9,1.9,1.8,2.4
	c2.3,1.9,4.7,3.5,7.3,4.9c3.3,1.9,7,3.6,10.8,3.9c2,0.3,4-0.2,5.7-1.2c1.6-1.1,2.4-3.3,1.5-5c-0.9-1.7-3.2-2.2-5.1-3.2
	C183.8,264.8,175.3,251,169.4,259.5z"/>
<path class="st7" d="M256,264.9c-0.6,0.3-1,0.7-1.4,1.3c-0.3,0.6-0.4,1.2-0.4,1.9c0,1.9,0.4,3.8,1.2,5.5c0.2,0.6,0.6,1.1,1.1,1.5
	c0.5,0.3,1,0.4,1.5,0.5c4.7,0.7,9.6,0.4,14.3,0c2-0.2,4.1-0.4,5.4-1.9c1.1-1.5,1.1-3.6,0-5.1c-1.1-1.5-2.7-2.5-4.5-2.8
	c-1.7-0.4-3.5,0.1-5.1-0.4c-1.3-0.3-2.4-1.3-3.7-1.6C261.5,262.9,258.5,263.4,256,264.9z"/>
<linearGradient id="SVGID_4_" gradientUnits="userSpaceOnUse" x1="296.0476" y1="128.5826" x2="277.1614" y2="83.9942" gradientTransform="matrix(0.8 0 0 -0.8 -29.8817 206.1975)">
	<stop  offset="0" style="stop-color:#994A2C"/>
	<stop  offset="0.8315" style="stop-color:#F0E9CB"/>
</linearGradient>
<path class="st8" d="M187.8,128.2c-0.8,4.1-1.1,8.4-2.4,12.4c-1.3,4.3-3.8,8.4-3.9,12.9c-0.1,0.8,0.1,1.5,0.6,2.1
	c2,2.2,7.8-2.2,8.9-3.9c1.2-1.9,1.8-4.2,2.2-6.5l3.5-15.8c0.4-1.8,1.2-4.6,2.9-7.7c5.3-9.8,12.9-11,18.1-21c1-1.9,4-7.8,2.3-9.3
	c-2.9-2.6-20.7,8-27.6,23.1C189.6,120.8,187.8,128.2,187.8,128.2z"/>
<path class="st9" d="M216.7,88.4c-1.5,6.1-0.8,12.5-0.3,18.8c0.6,7,0.9,14.1,0.9,21.1c0,4,0.1,8.4,2.7,11.4
	c3.6,4.2,10.2,3.7,15.5,2.2c1.9-0.4,3.8-1.3,5.4-2.4c3.5-2.8,4.2-7.7,4.6-12.1c1.1-12.6,1.3-25.2,0.7-37.8
	c-0.4-8-3.4-19.1-13.7-18.4C225.1,71.9,218.3,82.1,216.7,88.4z"/>
<path class="st5" d="M245.4,127.4c-0.4,4.4-1.1,9.4-4.6,12.1c-1.6,1.2-3.4,2-5.4,2.4c-5.3,1.5-11.9,1.9-15.5-2.2
	c-2.6-3-2.7-7.4-2.7-11.4c0-4.3-0.1-8.6-0.4-12.9c-0.1-2.8-0.3-5.5-0.5-8.3c-0.5-6.3-1.2-12.7,0.3-18.8c1.2-4.6,5.2-11.4,10.1-14.9
	c1.6-1.2,3.6-2,5.6-2.2c10.4-0.8,13.4,10.3,13.7,18.4C246.7,102.3,246.5,114.9,245.4,127.4z"/>
<path class="st5" d="M232.7,76.8c-1.2,2.9-2.8,5.7-4.6,8.2c-0.9,1.1-1.6,2.4-2.2,3.7c-0.4,1.6-0.5,3.3-0.3,4.9
	c0.5,7.2-0.4,15.3-5.8,20.2c-0.8,0.8-1.9,1.4-3,1.6c-0.1-2.8-0.3-5.5-0.5-8.3c-0.5-6.3-1.2-12.7,0.3-18.8
	c1.2-4.6,5.2-11.4,10.1-14.9c0.8-0.1,1.6-0.1,2.4-0.1C232.6,73.4,234.1,73.2,232.7,76.8z"/>
<linearGradient id="SVGID_5_" gradientUnits="userSpaceOnUse" x1="323.949" y1="192.5337" x2="351.7029" y2="184.5277" gradientTransform="matrix(0.8 0 0 -0.8 -29.8817 206.1975)">
	<stop  offset="0" style="stop-color:#E5C5D5"/>
	<stop  offset="0.42" style="stop-color:#994A2C"/>
	<stop  offset="1" style="stop-color:#FFFFCC"/>
</linearGradient>
<path class="st10" d="M248.9,36.5c0.2,0.5,0.5,1.3,0.7,2.2c0.5,1.8,1.3,4.7,1.6,13.3c0.2,4,0.1,5.1-0.6,6.3c-0.8,1.3-2,2.4-3.4,3
	c-1.4,0.6-2.9,1.1-4.4,1.5c-1.3,0.4-2.6,0.8-3.4,1.9c-0.4,0.9-0.7,1.8-0.6,2.8l-0.3,4.2c-0.1,1.2-1.3,2.4-2.4,2.9
	c-1.2,0.4-2.4,0.4-3.6,0c-1-0.3-2-0.8-2.7-1.6c-0.9-1.1-1.4-2.5-1.5-3.9c-0.3-3.3-0.2-6.6,0.5-9.8c0.3-1.6,0.6-3.2,1.1-4.7
	c0.5-1.4,1.1-2.8,1.7-4.1c0.6-1.6,1.4-3.1,2.3-4.5c1.2-1.6,2.5-3,4-4.2c2-1.7,3.1-2.7,5-3.6C244.4,37.5,246.3,36.7,248.9,36.5z"/>
<path class="st9" d="M259.9,26.4c-5.2,5.2-11.4,9.4-17.5,13.6c-2.8,1.9-5.7,3.9-8.7,5.5c-8.6,4.8-18.2,7.6-28.1,8.1
	c-0.5-1.1,1-2.1,2.1-2.6l9.8-4.8c0.4-0.2,0.8-0.4,1.2-0.8c0.3-0.6,0.4-1.4,0.2-2.1c-0.7-4.1-1.8-8.4,0-12.1c1.4-2.9,4.4-4.7,7.3-6.3
	c2.4-1.3,5.1-2.7,7.8-2.1c2.7,0.6,4.6,2.9,6.2,5.1c0.3,0.6,0.8,1.1,1.4,1.4c0.4,0.2,0.9,0.3,1.3,0.3c6.3,0.3,11.5-4.4,17.3-6.7
	c0.4-0.2,0.8-0.3,1.3-0.2c1.1,0.3,0.9,2,0.1,2.8C260.7,26.3,260.7,25.6,259.9,26.4z"/>
<path class="st1" d="M261.6,25.5c-0.8,0.8-0.9,0.1-1.7,0.9c-5.2,5.2-11.4,9.4-17.5,13.6c-2.8,1.9-5.7,3.9-8.7,5.5
	c-8.6,4.8-18.2,7.6-28.1,8.1c-0.5-1.1,1-2.1,2.1-2.6l9.8-4.8c0.4-0.2,0.8-0.4,1.2-0.8c0.3-0.6,0.4-1.4,0.2-2.1
	c-0.7-4.1-1.8-8.4,0-12.1c1.4-2.9,4.4-4.7,7.3-6.3c2.4-1.3,5.1-2.7,7.8-2.1c2.7,0.6,4.6,2.8,6.2,5.1c0.3,0.6,0.8,1.1,1.4,1.4
	c0.2,0.1,0.4,0.1,0.6,0.2c0.3,0.1,0.5,0.1,0.8,0.1c5.6,0.2,10.5-3.6,15.7-6c0.6-0.3,1.1-0.5,1.7-0.7c0.4-0.2,0.8-0.3,1.2-0.2
	C262.6,23,262.4,24.7,261.6,25.5z"/>
<path d="M214,69.6c-2.3-2.4-3.4-1.9-4.5-3.6c-1.7-2.8-0.5-7.5,1.9-10c1.5-1.6,3.4-2.3,4.4-2.8c2.1-0.9,2.9-0.6,5.1-1.7
	c1.6-0.8,1.6-1.3,3.3-2.1c1.4-0.6,2.9-1.2,4.3-1.6c5.9-1.8,12.2-6.2,17.2-9.7c0,0.9-0.3,4-0.3,4.9c-2.7,4.2-5.4,8.3-8.2,12.5
	c-0.6,6.8-2.8,11.5-4.3,14.1c-1.6,2.8-3,5.1-5.8,6.3c-3.1,1.3-7.3,1-9.7-1.2C215.7,73.2,216.3,72,214,69.6z"/>
<linearGradient id="SVGID_6_" gradientUnits="userSpaceOnUse" x1="232.7483" y1="115.3588" x2="293.9408" y2="115.3588">
	<stop  offset="5.551577e-02" style="stop-color:#994A2C"/>
	<stop  offset="0.9599" style="stop-color:#F0E9CB"/>
</linearGradient>
<path class="st11" d="M234.3,75.1c-1.6,2.1-1.8,5-1.3,7.6c0.7,2.6,1.7,5,3,7.3l15,28.4c4.7,8.9,9.5,17.9,17.1,24.5
	c2.4,2.1,5.1,3.9,8,5.4c0.6,0.3,1.1,0.6,1.6,1c1.3,1,1.9,2.5,2.8,3.9c3,4.3,8.3,6.3,13.4,5c0.6-2.1-0.8-4.2-2.4-5.7
	c-1.6-1.5-3.4-2.8-4.2-4.8c0.2,0.7,0.9,1.1,1.6,0.9c0.7-0.2,1.1-0.9,0.9-1.6c-0.2-0.4-0.4-0.8-0.8-1.1c-1-1.1-2.2-2.1-3.5-2.9
	c-1.4-0.8-2.9-1.2-4.3-2c-1.6-1-3-2.3-4.2-3.8c-3.1-3.7-5.8-7.6-8-11.9c-2-3.7-3.7-7.6-6-11.2c-2.1-3.2-4.6-6-6.3-9.4
	c-3-6-2.9-13.1-5-19.6c-1.2-3.8-3.6-9.5-7.1-11.8C241.4,71.3,236.5,72.1,234.3,75.1z"/>
<path class="st7" d="M252.5,44.4c0.2,0,0.4,0,0.5,0.2c0.1,0.1,0.2,0.3,0.2,0.5c0.2,1,0.3,2,0.2,3c-0.1,0.9-0.5,2.1-1.5,2
	c-0.4,0-0.7-0.2-1-0.4c-1.1-0.9-1.6-2.5-2.2-3.8c0,0-7.1,1.1-7.7,1.2c-1.4,0.2-2,0.5-1-0.4C242.9,44,248.8,44.2,252.5,44.4z"/>
<path class="st9" d="M183.2,153.9l-7.4,10.7l4,2.9l7.4-9.8C186.6,156.2,184.2,153.8,183.2,153.9z"/>
<path class="st7" d="M183.2,153.9l-7.4,10.7l4,2.9l7.4-9.8C186.6,156.2,184.2,153.8,183.2,153.9z"/>
<path class="st7" d="M154.4,199l-11.4-6.1c-6.2-3.3-13.9-1.2-17.6,4.8l-26.3,42.6c-2.4,3.9-1.2,9,2.7,11.5l13.3,8.3L154.4,199z"/>
<circle class="st7" cx="112.4" cy="263.8" r="4.5"/>
<circle class="st12" cx="112.4" cy="263.6" r="2"/>
<circle class="st7" cx="187" cy="153.6" r="3.8"/>
<linearGradient id="SVGID_7_" gradientUnits="userSpaceOnUse" x1="328.2105" y1="227.2664" x2="348.1905" y2="186.1564" gradientTransform="matrix(0.8 0 0 -0.8 -29.8817 206.1975)">
	<stop  offset="0" style="stop-color:#000000;stop-opacity:0"/>
	<stop  offset="0.99" style="stop-color:#000000"/>
</linearGradient>
<path class="st13" d="M258.6,23.6c-0.1,0.4-0.3,0.8-0.6,1.1c-1.8,2.1-3.8,4.1-6.1,5.8c-3.9,3.2-7.9,6.4-12,9.4
	c-6.5,4.7-14,8.9-22,8.5c0.9-1.1,1.8-2.2,2.9-3.2c0.7-0.7,1.5-1.3,2.3-1.8c0.9-0.4,1.8-0.7,2.8-1c4.4-1.4,8.2-4.1,11.7-7
	c1.1,0,3.3-3.2,3.7-4.1c0.4-0.9,0.6-1.4,0.8-1.9c0.3,0.1,0.5,0.1,0.8,0.1C248.6,29.8,253.4,26,258.6,23.6z"/>
<linearGradient id="SVGID_8_" gradientUnits="userSpaceOnUse" x1="362.6559" y1="68.3042" x2="131.1959" y2="-184.4358" gradientTransform="matrix(0.8 0 0 -0.8 -29.8817 206.1975)">
	<stop  offset="0" style="stop-color:#000000;stop-opacity:0"/>
	<stop  offset="0.99" style="stop-color:#000000"/>
</linearGradient>
<path class="st14" d="M211.4,174.2c2.2-4.8,4.6-9.5,6.1-14.6c1.5-5.1,1.9-10.6,0-15.6c-6.7,9.3-9.2,20.9-12.6,31.9
	c-3.3,11-8.1,22.3-17.5,28.9c-3.7,2.6-8.2,4.6-9.9,8.8s0.4,9,3.8,11.9c3.3,2.9,7.7,4.3,12,5.4s8.7,2.2,12.3,4.7
	c3.1,2.1,5.7,5.2,9.2,6.4c5.8,1.9,11.9-1.9,16.7-5.7c2.9-2.3,6.1-5.3,5.5-9c-5.4,3-12.1,2-16.3-2.5c-4-4.6-4.3-11.2-4.7-17.3
	c-0.4-7.7-1.3-15.3-2.7-22.9c-4.1,5.8-4.6,13.3-4.9,20.4l-0.5,12.3c-0.1,3,0.6,8.6-1.6,11c-4.4,4.7-7.3-4.4-7.3-7.8
	C198.9,205.3,205.2,187.9,211.4,174.2z"/>
<linearGradient id="SVGID_9_" gradientUnits="userSpaceOnUse" x1="325.4343" y1="59.71" x2="421.4943" y2="-222.04" gradientTransform="matrix(0.8 0 0 -0.8 -29.8817 206.1975)">
	<stop  offset="0" style="stop-color:#000000;stop-opacity:0"/>
	<stop  offset="0.99" style="stop-color:#000000"/>
</linearGradient>
<path class="st15" d="M228.2,187.5c1.8,9,5.2,17.6,6.4,26.7c0.5,4.1,1,8.9,4.6,11c1.1,0.6,2.3,0.9,3.5,1.1
	c5.3,1.1,11.1,2.2,15.9-0.2c5.7-2.8,8.2-10.7,5.2-16.3l-2.5,6.4c-0.3,0.8-0.7,1.6-1.4,1.9c-1.3,0.4-2.4-1.1-2.9-2.4l-5.6-13.8
	c-2.5,4.2,0.7,9.4,0.9,14.3c0.1,0.8-0.1,1.7-0.5,2.4c-0.9,1.4-3.1,1.6-4.6,0.7c-1.5-0.9-2.4-2.4-3.2-3.9
	c-9.4-17.3-13.2-37.1-10.9-56.7c0.3-2.4,0.7-4.9,0.3-7.3c-0.4-2.2-1.6-5-3.8-5.8c-0.3,3,0.3,6-0.2,9.1c-0.5,3.3-1.4,6.4-1.9,9.7
	C226.5,172.1,226.7,179.9,228.2,187.5z"/>
</svg>
