<?xml version="1.0" encoding="utf-8"?>
<!-- Generator: Adobe Illustrator 24.1.2, SVG Export Plug-In . SVG Version: 6.00 Build 0)  -->
<svg version="1.1" id="Layer_1" xmlns="http://www.w3.org/2000/svg" xmlns:xlink="http://www.w3.org/1999/xlink" x="0px" y="0px"
	 viewBox="0 0 406 306" style="enable-background:new 0 0 406 306;" xml:space="preserve">
<style type="text/css">
	.st0{fill:#061152;}
	.st1{fill:#231F20;}
	.st2{fill:#FFFFFF;}
	.st3{fill:#F5931C;}
	.st4{fill:#D1D3D4;}
</style>
<g id="_102_traveling">
	<path class="st0" d="M350.2,216.8H55.9c-0.3,0-0.5-0.2-0.5-0.5v-14.6c0-0.3,0.2-0.5,0.5-0.5h294.3c0.3,0,0.5,0.2,0.5,0.5v14.6
		C350.7,216.6,350.5,216.8,350.2,216.8z M56.4,215.8h293.2v-13.6H56.4L56.4,215.8z"/>
	<path class="st0" d="M350.2,202.2H55.9c-0.3,0-0.5-0.2-0.5-0.5v-143c0-0.3,0.2-0.5,0.5-0.5h294.3c0.3,0,0.5,0.2,0.5,0.5v143
		C350.7,202,350.5,202.2,350.2,202.2z M56.4,201.2h293.2v-142H56.4L56.4,201.2z"/>
	<path class="st0" d="M148.5,202.2c-0.3,0-0.5-0.2-0.5-0.5v-143c0-0.3,0.2-0.5,0.5-0.5c0.3,0,0.5,0.2,0.5,0.5v143
		C149,202,148.7,202.2,148.5,202.2z"/>
	<path class="st0" d="M257.5,202.2c-0.3,0-0.5-0.2-0.5-0.5v-143c0-0.3,0.2-0.5,0.5-0.5s0.5,0.2,0.5,0.5v143
		C258,202,257.8,202.2,257.5,202.2z"/>
	<path class="st0" d="M350.2,130.7H55.9c-0.3,0-0.5-0.2-0.5-0.5c0-0.3,0.2-0.5,0.5-0.5h294.3c0.3,0,0.5,0.2,0.5,0.5
		C350.7,130.4,350.5,130.7,350.2,130.7z"/>
	<path class="st1" d="M199.5,91.1c3.2-0.2,6.3,0,9.4,0.6c4.9,1.1,9.7,4,11.8,8.5c1.4,3,1.5,6.6,1.5,10l0.2,11.8v3.8
		c0,2.9,0.1,5.7,0.1,8.6c0.1,3-0.2,5.9-0.7,8.9c-1,4.7-3.5,9.3-7.8,11.5c-2.9,1.3-6,1.8-9.1,1.5c-6.7-0.2-13.3-2.4-18.7-6.3
		c-5.5-4-9.1-10-10.1-16.7c-0.4-3.2,0.6-6.8,0.7-10.1c0.1-3.8,0.4-7.5,0.9-11.3c1-6.5,2.8-15.1,9.1-18.6c2.2-1.2,4.7-1.5,7.2-1.7
		C195.7,91.3,197.6,91.2,199.5,91.1z"/>
	<path class="st1" d="M206.2,156.8c-0.5,0-1,0-1.5,0c-6.9-0.2-13.5-2.4-19.1-6.4c-5.6-4.1-9.3-10.2-10.3-17.1
		c-0.2-2.1,0-4.2,0.3-6.2c0.2-1.3,0.4-2.6,0.4-3.9c0.1-3.8,0.4-7.6,0.9-11.3c1-7,3-15.4,9.3-19c2.3-1.3,5-1.6,7.4-1.8
		c1.7-0.2,3.7-0.3,5.6-0.4l0,0c3.2-0.2,6.4,0,9.6,0.6c5.6,1.2,10.1,4.5,12.2,8.8c1.5,3.2,1.5,7,1.6,10.2l0.2,15.5
		c0,2.9,0.1,5.8,0.1,8.6c0.1,3-0.2,6-0.7,9c-1.1,5.5-4.1,9.8-8.1,11.9C211.7,156.3,209,156.9,206.2,156.8z M199.5,91.6
		c-1.9,0.1-3.9,0.3-5.6,0.4c-2.3,0.2-4.9,0.5-7,1.6c-5.9,3.4-7.8,11.5-8.8,18.3c-0.5,3.7-0.8,7.5-0.9,11.2c-0.1,1.4-0.2,2.7-0.4,4.1
		c-0.3,2-0.5,4-0.3,6c0.9,6.6,4.5,12.5,9.9,16.4c5.4,3.9,11.8,6,18.5,6.2c3.8,0.2,6.6-0.3,8.9-1.5c3.7-1.9,6.5-6,7.6-11.2
		c0.5-2.9,0.7-5.8,0.7-8.8c0-2.8,0-5.7,0-8.5l-0.2-15.6c0-3.2-0.1-6.8-1.5-9.8c-1.8-4-6.1-7.1-11.4-8.3
		C205.8,91.6,202.7,91.4,199.5,91.6L199.5,91.6z M199.5,91.1L199.5,91.1z"/>
	<path class="st2" d="M160.7,109l-15.4,10.8L133,96.3c0,0,0.8-9.8-0.8-10.8s-2.3,3.4-2.3,3.4s-3.4-9.4-4.5-9.1
		c-1.1,0.4-5.1,2.9-5.1,5.3c0,2.5,13.9,47.9,17.9,49.7s35.1-16.5,35.1-16.5"/>
	<path class="st1" d="M138.8,135.5c-0.3,0-0.6,0-0.9-0.2c-1.9-0.9-5.5-9.3-10.7-24.9c-3.7-11.1-7.5-23.8-7.5-25.3
		c0-2.8,4.3-5.4,5.4-5.8c0.2-0.1,0.4-0.1,0.6,0c1.1,0.5,2.9,5,4,7.8c0.3-0.9,0.8-2,1.5-2.3c0.4-0.2,0.9-0.1,1.2,0.2
		c1.6,1.1,1.2,8.6,1,11.2l12,22.9l15-10.5c0.2-0.1,0.6-0.1,0.7,0.2c0.1,0.2,0.1,0.5-0.1,0.7l-15.5,10.8c-0.1,0.1-0.3,0.1-0.4,0.1
		c-0.1,0-0.3-0.1-0.3-0.3l-12.3-23.5c-0.1-0.1-0.1-0.2-0.1-0.3c0.4-4.5,0.3-9.8-0.6-10.4c-0.1-0.1-0.2-0.1-0.2-0.1
		c-0.5,0.2-1.1,2-1.3,3.2c0,0.2-0.2,0.4-0.5,0.4c-0.2,0-0.4-0.1-0.5-0.3c-1.4-3.8-3.2-8.1-4-8.7c-1.1,0.5-4.6,2.7-4.6,4.8
		c0,2.8,14.1,47.7,17.6,49.3c2.8,1.3,22.7-9.5,34.7-16.5c0.2-0.1,0.6-0.1,0.7,0.2c0.1,0.2,0.1,0.5-0.2,0.7
		C170.5,120.5,145.1,135.5,138.8,135.5z"/>
	<path class="st1" d="M273.5,256.3h1c1.1,0,2,0.9,2,2v2.4c0,1.1-0.9,2-2,2h-1c-1.1,0-2-0.9-2-2v-2.4
		C271.5,257.1,272.4,256.3,273.5,256.3z"/>
	<path class="st1" d="M274.5,263.1h-1c-1.4,0-2.5-1.1-2.4-2.5c0,0,0,0,0,0v-2.4c0-1.4,1.1-2.5,2.5-2.5h1c1.4,0,2.5,1.1,2.5,2.5v2.4
		C277,262,275.9,263.1,274.5,263.1C274.5,263.1,274.5,263.1,274.5,263.1z M273.5,256.8c-0.8,0-1.5,0.6-1.5,1.5v2.4
		c0,0.8,0.6,1.5,1.5,1.5h1c0.8,0,1.5-0.6,1.5-1.5v-2.4c0-0.8-0.6-1.5-1.5-1.5L273.5,256.8z"/>
	<path class="st1" d="M251.6,256.3h1c1.1,0,2,0.9,2,2v2.4c0,1.1-0.9,2-2,2h-1c-1.1,0-2-0.9-2-2v-2.4
		C249.6,257.1,250.5,256.3,251.6,256.3z"/>
	<path class="st1" d="M252.6,263.1h-1c-1.4,0-2.5-1.1-2.5-2.5v-2.4c0-1.4,1.1-2.5,2.5-2.5h1c1.4,0,2.5,1.1,2.5,2.5v2.4
		C255.1,262,254,263.1,252.6,263.1C252.6,263.1,252.6,263.1,252.6,263.1z M251.6,256.8c-0.8,0-1.5,0.6-1.5,1.5v2.4
		c0,0.8,0.6,1.5,1.5,1.5h1c0.8,0,1.5-0.6,1.5-1.5v-2.4c0-0.8-0.7-1.5-1.5-1.5L251.6,256.8z"/>
	<polygon class="st2" points="231.1,201.6 247.2,192.5 283.5,192.5 294.1,243.9 281,255.6 	"/>
	<path class="st1" d="M281,256.1c-0.1,0-0.3-0.1-0.4-0.2l-49.9-54c-0.2-0.2-0.2-0.5,0-0.7c0,0,0.1-0.1,0.1-0.1l16.1-9.1
		c0.1,0,0.2-0.1,0.2-0.1h36.3c0.2,0,0.4,0.2,0.5,0.4l10.6,51.4c0,0.2,0,0.4-0.2,0.5L281.3,256C281.2,256.1,281.1,256.1,281,256.1z
		 M231.9,201.7l49.1,53.2l12.5-11.2L283.1,193h-35.8L231.9,201.7z"/>
	<polygon class="st2" points="281,255.6 242.1,255.6 231.1,201.6 270,201.6 	"/>
	<path class="st1" d="M281,256.1h-38.9c-0.2,0-0.5-0.2-0.5-0.4l-11-54c0-0.2,0-0.3,0.1-0.4c0.1-0.1,0.2-0.2,0.4-0.2H270
		c0.2,0,0.5,0.2,0.5,0.4l11,54c0,0.2,0,0.3-0.1,0.4C281.3,256.1,281.1,256.1,281,256.1z M242.5,255.1h37.9l-10.7-53h-37.9
		L242.5,255.1z"/>
	<polygon class="st1" points="247.2,254.2 248.1,257.3 275.6,257.3 275,254.2 	"/>
	<path class="st1" d="M275.6,257.8h-27.5c-0.2,0-0.4-0.1-0.5-0.4l-0.9-3c0-0.2,0-0.3,0.1-0.4c0.1-0.1,0.2-0.2,0.4-0.2h27.9
		c0.2,0,0.5,0.2,0.5,0.4l0.5,3c0,0.1,0,0.3-0.1,0.4C275.9,257.7,275.7,257.8,275.6,257.8z M248.5,256.7H275l-0.4-2h-26.8
		L248.5,256.7z"/>
	<path class="st1" d="M259.1,204.1h-19.4c-0.2,0-0.4-0.2-0.5-0.4l-8.7-39.7c0-0.1,0-0.3,0.1-0.4c0.1-0.1,0.2-0.2,0.4-0.2h19.9
		c0.2,0,0.5,0.2,0.5,0.4l8.2,39.7c0,0.2,0,0.3-0.1,0.4C259.4,204,259.2,204.1,259.1,204.1z M240.1,203.1h18.3l-8-38.7h-18.8
		L240.1,203.1z"/>
	<path class="st1" d="M270,202.1c-0.2,0-0.3-0.1-0.4-0.2c-0.2-0.2-0.1-0.5,0.1-0.7c0,0,0,0,0,0l11.8-7.7c0.2-0.2,0.6-0.1,0.7,0.2
		c0.2,0.2,0.1,0.5-0.2,0.7l-11.8,7.7C270.2,202.1,270.1,202.1,270,202.1z"/>
	<path class="st1" d="M253.3,164.3h-24.7c-0.3,0-0.5-0.2-0.5-0.5c0-0.3,0.2-0.5,0.5-0.5h24.7c0.3,0,0.5,0.2,0.5,0.5
		C253.8,164.1,253.6,164.3,253.3,164.3z"/>
	<polygon class="st2" points="170,241.5 166.2,250.6 157.5,246.8 161.4,236.8 	"/>
	<path class="st1" d="M161.4,236.8l8.6,4.8l-3.8,9.1l-8.7-3.8L161.4,236.8 M161.4,235.8c-0.1,0-0.2,0-0.3,0.1
		c-0.3,0.1-0.5,0.3-0.6,0.6l-3.9,10c-0.2,0.5,0,1.1,0.5,1.3l8.7,3.8c0.1,0.1,0.3,0.1,0.4,0.1c0.1,0,0.3,0,0.4-0.1
		c0.3-0.1,0.5-0.3,0.6-0.5l3.8-9.1c0.2-0.5,0-1-0.4-1.3l-8.5-4.8C161.8,235.8,161.6,235.7,161.4,235.8L161.4,235.8z"/>
	<path class="st1" d="M167.2,250.2l-4.7,12c0,0-24.8-8.9-26.4-10.5c-1.6-1.6,3.8-3.6,4.9-3.2c1,0.3,5.1,1.4,6.5,1.2
		c1.5-0.2,9.3-4.2,9.3-4.2L167.2,250.2z"/>
	<path class="st1" d="M162.5,262.7c-0.1,0-0.1,0-0.2,0c-2.5-0.9-25-9-26.6-10.6c-0.5-0.4-0.6-1.2-0.2-1.7c0.9-1.4,4.5-2.7,5.6-2.4
		c1.1,0.3,5.1,1.3,6.3,1.2c1-0.1,6.1-2.5,9.2-4.1c0.1-0.1,0.3-0.1,0.4,0l10.4,4.8c0.2,0.1,0.4,0.4,0.3,0.6l-4.7,12
		C162.8,262.6,162.7,262.7,162.5,262.7z M140.6,248.9c-0.9,0-3.7,0.9-4.3,1.9c-0.1,0.1-0.1,0.3,0,0.5c0,0,0,0,0,0
		c1.1,1.1,15.8,6.7,25.8,10.3l4.4-11.1l-9.7-4.5c-1.5,0.7-7.9,3.9-9.3,4.1c-1.6,0.2-5.8-0.9-6.8-1.2
		C140.7,248.9,140.7,248.9,140.6,248.9L140.6,248.9z"/>
	<polygon class="st2" points="212.2,217.4 220.1,223.2 214.3,230.8 205.5,224.5 	"/>
	<path class="st1" d="M212.1,217.4l7.9,5.9l-5.8,7.5l-8.8-6.2L212.1,217.4 M212.1,216.4c-0.3,0-0.6,0.1-0.8,0.3l-6.6,7.2
		c-0.2,0.2-0.3,0.5-0.3,0.8c0,0.3,0.2,0.6,0.4,0.7l8.8,6.2c0.2,0.1,0.4,0.2,0.6,0.2c0.3,0,0.6-0.1,0.8-0.4l5.8-7.5
		c0.2-0.2,0.2-0.5,0.2-0.8c0-0.3-0.2-0.5-0.4-0.7l-7.9-5.9C212.6,216.4,212.4,216.4,212.1,216.4L212.1,216.4z"/>
	<path class="st1" d="M219.9,222.2l10.5,7.4c0,0-14.6,22-16.5,23.1c-1.9,1.2-2.5-4.6-2-5.5c0.5-0.9,2.6-4.6,2.7-6.1
		c0.2-1.5-1.8-10.1-1.8-10.1L219.9,222.2z"/>
	<path class="st1" d="M213.4,253.4c-0.4,0-0.7-0.2-1-0.4c-1.2-1.2-1.5-5.1-0.9-6c0.6-0.9,2.5-4.6,2.7-5.9c0.1-1-1-6.5-1.8-9.9
		c0-0.2,0-0.3,0.1-0.4l7.1-8.9c0.2-0.2,0.5-0.3,0.7-0.1l10.5,7.4c0.2,0.2,0.3,0.5,0.1,0.7c-1.5,2.3-14.7,22.1-16.7,23.3
		C213.9,253.3,213.7,253.4,213.4,253.4z M213.4,231.2c0.4,1.6,1.9,8.6,1.8,10c-0.2,1.6-2.3,5.4-2.8,6.3c-0.3,0.5-0.1,3.9,0.8,4.8
		c0.1,0.1,0.3,0.1,0.5,0c0,0,0,0,0,0c1.3-0.8,10.3-13.8,16.1-22.6l-9.7-6.9L213.4,231.2z"/>
	<path class="st1" d="M168.5,142.5c0,0-16.9,45-12.5,48.2c4.4,3.3,49.7,39.8,49.7,39.8l11.1-14.3c0,0-32.3-24.2-33.2-27.1
		c-0.9-2.9,8-43.8,8-43.8L168.5,142.5z"/>
	<path class="st1" d="M205.7,231.2c-0.1,0-0.2,0-0.3-0.1c-0.4-0.4-45.4-36.6-49.7-39.8c-4.6-3.4,10.6-44.2,12.3-48.8
		c0.1-0.2,0.3-0.3,0.5-0.3l23.2,2.8c0.1,0,0.3,0.1,0.4,0.2c0.1,0.1,0.1,0.3,0.1,0.4c-3.6,16.4-8.7,41.6-8,43.6s20.6,17.5,33,26.8
		c0.2,0.2,0.3,0.5,0.1,0.7l-11.2,14.3C206,231,205.9,231.1,205.7,231.2L205.7,231.2z M168.8,143.1c-6.5,17.3-15.5,45.1-12.5,47.3
		c4.1,3,44.9,35.9,49.3,39.5l10.5-13.5c-4.8-3.6-32.1-24.2-33-27c-0.9-2.9,6.6-37.4,7.9-43.6L168.8,143.1z"/>
	<path class="st1" d="M205.6,149.3l-32.7,94.4c0,0-21-6-19.5-7c-1.8,1.3,21.8-64.1,28-91.5L205.6,149.3z"/>
	<path class="st1" d="M172.9,244.2c0,0-0.1,0-0.1,0c-9-2.5-19.7-5.9-20-7.3c0-0.1,0-0.1,0-0.2c-0.1-1,1.1-5.1,7.5-24.4
		c7.1-21.5,16.9-50.9,20.5-67.2c0.1-0.3,0.3-0.4,0.6-0.4l24.3,4.1c0.1,0,0.3,0.1,0.4,0.2c0.1,0.1,0.1,0.3,0,0.4l-32.7,94.4
		C173.3,244.1,173.1,244.2,172.9,244.2z M153.9,236.7c1.2,1,10.2,3.9,18.7,6.4l32.4-93.4l-23.2-3.9c-3.8,16.4-13.4,45.5-20.4,66.9
		c-3.9,11.8-7.3,22-7.5,23.7C153.8,236.4,153.9,236.6,153.9,236.7z"/>
	<path class="st3" d="M213.4,125.5l9.4-9.1c-5.1-8.7-6.9-14.6-10.4-16.4c-4.5-3.1-20.6-1-30.2-0.5c-3.1,0.1-6.1,0.7-9.1,1.8
		c-6.3,2.3-12.2,5.8-17.3,10.3l11.7,14.4l2.8-4.2c0,0-1.6,8.2-5.5,24.9c13.7-0.8,27.3,1.2,40.2,5.9
		C205.1,152.5,213.4,128.4,213.4,125.5z"/>
	<path class="st1" d="M179.7,67.5c0,0-6.3,0.1-3.3,7.2c1.9,4.6,15.5,5.4,15.5,5.4S191.8,71.5,179.7,67.5z"/>
	<path class="st1" d="M191.8,80.5L191.8,80.5c-0.6,0-13.9-0.8-15.9-5.7c-1-2.5-1.1-4.5-0.2-5.9c1-1.2,2.4-2,4-2h0.2
		c12.4,4.1,12.5,12.6,12.5,13c0,0.1-0.1,0.3-0.2,0.4C192.1,80.4,192,80.5,191.8,80.5z M179.6,68c-1.2,0.1-2.3,0.6-3,1.5
		c-0.7,1.1-0.6,2.8,0.3,4.9c1.4,3.4,10.5,4.7,14.5,5C191,77.6,189.5,71.3,179.6,68z"/>
	<path class="st2" d="M185.4,74.5c0.2-0.3,0.3-0.6,0.5-0.8c2.2-3,7.9-2,10.9-1.1c2.8,0.7,5.5,2.1,7.6,4.1c1.6,1.7,3.2,4.4,2.9,6.8
		s-1.8,5.3-3,7.3c-0.7,1.3-1.7,2.4-2.9,3.2c-1.3,0.7-2.6,1-4.1,1c-3,0.3-6.1-0.3-8.8-1.6c-2.9-1.6-4.9-4.6-5.3-7.9
		C182.8,81.7,183.6,77.9,185.4,74.5z"/>
	<path class="st1" d="M195.8,95.6c-2.7,0.1-5.3-0.5-7.6-1.7c-2.6-1.5-5.3-4.6-5.6-8.3c-0.4-3.9,0.5-7.8,2.4-11.3
		c0.2-0.3,0.4-0.6,0.6-0.9c2.5-3.5,8.8-2.1,11.4-1.3c2.9,0.7,5.6,2.2,7.8,4.3c1.6,1.6,3.4,4.5,3,7.3c-0.5,2.7-1.6,5.3-3.2,7.6
		c-1.3,2.8-4.2,4.6-7.4,4.4C196.8,95.6,196.3,95.6,195.8,95.6z M191.2,72.2c-1.9,0-3.8,0.4-4.8,1.8c-0.2,0.3-0.4,0.5-0.5,0.8l0,0
		c-1.8,3.2-2.6,7-2.3,10.7c0.4,3.2,2.3,5.9,5.1,7.5c2.2,1.2,5,1.8,8.5,1.6c1.3,0,2.7-0.3,3.8-0.9c1.1-0.8,2-1.8,2.7-3
		c1.5-2.1,2.5-4.6,3-7.1c0.3-2.2-1.2-4.8-2.7-6.4c-2.1-1.9-4.6-3.3-7.3-4C194.9,72.6,193.1,72.3,191.2,72.2L191.2,72.2z M185.4,74.6
		L185.4,74.6z"/>
	<path class="st2" d="M187,94.8l-0.9,7.3c0,0,2,4.6,6.8,3.7c2.9-0.6,5.3-2.4,6.7-5l0.6-13.4c0,0-3.4-2-2-9.6
		c-4,1.5-8.3,1.9-12.4,1.1c0,0-2.6,8.2-2.2,11.9C184,94.5,187,94.8,187,94.8z"/>
	<path class="st1" d="M191.7,106.5c-4.2,0-6.1-4.1-6.1-4.2c0-0.1,0-0.2,0-0.3l0.8-6.9c-1.9-0.6-3.3-2.3-3.3-4.3
		c-0.4-3.8,2-11.8,2.2-12.1c0.1-0.3,0.3-0.4,0.6-0.4c4,0.7,8.2,0.3,12.1-1.1c0.2-0.1,0.4-0.1,0.5,0.1c0.2,0.1,0.2,0.3,0.2,0.5
		c-1.3,7.1,1.8,9.1,1.8,9.1c0.2,0.1,0.3,0.3,0.2,0.5l-0.6,13.4c0,0.1,0,0.1,0,0.2c-1.4,2.8-4.1,4.7-7.1,5.3
		C192.5,106.5,192.1,106.5,191.7,106.5z M186.6,102.1c0.3,0.7,2.2,4.1,6.2,3.3c2.7-0.5,5-2.2,6.3-4.6l0.6-13c-0.8-0.6-3-3-2.2-9.1
		c-3.7,1.2-7.6,1.5-11.4,0.9c-0.5,1.7-2.3,8.1-2,11.2c0.3,3.1,2.8,3.5,2.9,3.5c0.3,0,0.5,0.3,0.5,0.6L186.6,102.1z"/>
	<path class="st2" d="M197.4,87.1c0.2-0.6,0.6-1.2,1.1-1.6c0.5-0.3,1.1-0.6,1.7-0.8c0.3-0.1,0.7-0.2,1-0.1c0.2,0.1,0.5,0.1,0.7,0.3
		c0.5,0.3,0.9,0.7,1.1,1.3c0.1,0.4,0.1,0.9,0,1.4c-0.1,0.5-0.2,1-0.4,1.4c-0.9,1.9-3.2,2.7-5.1,1.7c0,0,0,0,0,0"/>
	<path class="st1" d="M199.2,91.6c-0.7,0-1.3-0.2-1.9-0.4c-0.3-0.1-0.4-0.4-0.2-0.7c0,0,0,0,0,0c0.1-0.3,0.4-0.4,0.7-0.2
		c0.8,0.4,1.7,0.4,2.5,0.2c0.8-0.3,1.5-0.9,1.9-1.7c0.2-0.4,0.3-0.8,0.4-1.3c0.1-0.4,0.1-0.7,0-1.1c-0.2-0.4-0.5-0.8-0.9-1
		c-0.1-0.1-0.3-0.2-0.5-0.2c-0.3,0-0.5,0-0.8,0.1c-0.5,0.1-1.1,0.4-1.5,0.7c-0.4,0.3-0.8,0.8-0.9,1.3c-0.1,0.3-0.4,0.4-0.7,0.4
		c-0.3-0.1-0.4-0.4-0.4-0.7c0.2-0.8,0.7-1.4,1.3-1.9c0.6-0.4,1.2-0.7,1.9-0.8c0.4-0.1,0.8-0.2,1.2-0.1c0.3,0.1,0.6,0.2,0.9,0.3
		c0.6,0.4,1.1,0.9,1.3,1.6c0.1,0.5,0.1,1.1,0,1.6c-0.1,0.5-0.2,1.1-0.5,1.6c-0.5,1-1.4,1.8-2.5,2.2
		C200.1,91.5,199.7,91.6,199.2,91.6z"/>
	<path class="st2" d="M189.6,83.7c0,0-2.8,3.5-2.3,4.2s2.2,0.4,2.2,0.4"/>
	<path class="st1" d="M188.8,88.8c-0.7,0.1-1.4-0.2-1.8-0.7c-0.5-0.7,0.2-2.3,2.3-4.8c0.2-0.2,0.5-0.3,0.7-0.1
		c0.2,0.2,0.3,0.5,0.1,0.7c-1.2,1.5-2.2,3.2-2.2,3.6c0.5,0.2,1.1,0.3,1.7,0.1c0.3,0,0.5,0.1,0.6,0.4c0,0.3-0.1,0.5-0.4,0.6
		C189.4,88.8,189.1,88.8,188.8,88.8z"/>
	<path class="st2" d="M188.8,90.9c0,0,2.7,1.1,3.7-1.5"/>
	<path class="st1" d="M190.1,91.6c-0.5,0-1-0.1-1.5-0.3c-0.3-0.1-0.4-0.4-0.3-0.7c0.1-0.3,0.4-0.4,0.7-0.3c0.6,0.2,1.3,0.2,1.9,0
		c0.5-0.3,0.9-0.7,1.1-1.2c0.1-0.3,0.3-0.4,0.6-0.4c0.3,0.1,0.4,0.3,0.4,0.6c0,0,0,0.1,0,0.1c-0.3,0.8-0.8,1.5-1.6,1.8
		C191,91.5,190.6,91.6,190.1,91.6z"/>
	<ellipse transform="matrix(0.2934 -0.956 0.956 0.2934 56.7402 244.6063)" class="st1" cx="193.8" cy="83.9" rx="0.9" ry="0.6"/>
	<ellipse transform="matrix(0.2934 -0.956 0.956 0.2934 52.6545 238.0768)" class="st1" cx="187.4" cy="83.4" rx="0.9" ry="0.6"/>
	<path class="st2" d="M197.6,81.7l9.6,2c0,0,5.1-12.6-4.8-18.2c-11.2-6.4-16.9,2.7-16.9,2.7L197.6,81.7z"/>
	<path class="st1" d="M207.2,84.3h-0.2l-9.6-2c-0.1,0-0.2-0.1-0.3-0.2L185,68.6c-0.2-0.2-0.2-0.4-0.1-0.6c0.1-0.1,6.2-9.4,17.6-2.8
		c4.2,2.4,6.4,6.4,6.3,11.7c0,2.5-0.4,4.9-1.3,7.2C207.6,84.2,207.4,84.3,207.2,84.3z M197.9,81.2l9,1.9c0.7-2.1,1.1-4.2,1.1-6.4
		c0-4.9-1.9-8.5-5.8-10.7c-9.5-5.4-14.9,0.6-16,2.2L197.9,81.2z"/>
	<path class="st2" d="M197.6,81.7c0,0-1.9-10.1-12.2-13.5l-5.8-0.7c3.4,2.7,6.3,6.1,8.4,10C191.7,83.9,197.6,81.7,197.6,81.7z"/>
	<path class="st1" d="M195.3,82.6c-2.2,0-5.4-0.8-7.7-4.8c-2.1-3.8-4.9-7.1-8.2-9.8c-0.2-0.1-0.3-0.4-0.2-0.6
		c0.1-0.2,0.3-0.4,0.5-0.3l5.9,0.7c10.5,3.5,12.6,13.8,12.6,13.9c0.1,0.3-0.1,0.5-0.3,0.6C197,82.5,196.1,82.6,195.3,82.6z
		 M181.4,68.2c2.8,2.6,5.2,5.6,7.1,9c2.9,5.1,7.1,4.5,8.5,4.1c-0.5-2-3.1-9.8-11.7-12.6L181.4,68.2z"/>
	<path class="st2" d="M166.4,197.3h-0.2c-0.3-0.1-0.4-0.4-0.3-0.6l8.8-28.6c0.1-0.3,0.4-0.4,0.6-0.3c0.3,0.1,0.4,0.4,0.3,0.6
		l-8.8,28.6C166.8,197.2,166.6,197.3,166.4,197.3z"/>
	<path class="st2" d="M183.8,214.3c-0.1,0-0.1,0-0.2,0c-0.3-0.1-0.4-0.4-0.3-0.7c0,0,0,0,0,0l7.1-17c0.1-0.3,0.4-0.4,0.7-0.3
		c0.3,0.1,0.4,0.4,0.3,0.7l-7.1,17C184.2,214.2,184,214.3,183.8,214.3z"/>
	<path class="st2" d="M210.7,119.7c0,0,14.7,29.4,21.4,41.5c0,0,1.4,10.6,8,10c9.4-0.8,7.7-6.8,7.7-6.8l-5.3-5.1l-19.7-42.8"/>
	<path class="st1" d="M239.6,171.7c-6.2,0-7.8-9.2-8-10.4c-6.7-12-21.3-41.2-21.4-41.5c-0.1-0.3,0.1-0.5,0.4-0.6
		c0.2,0,0.4,0,0.5,0.2c0.2,0.3,14.7,29.6,21.4,41.5c0,0.1,0,0.1,0.1,0.2c0,0.1,1.5,10.1,7.5,9.6c3.3-0.3,5.5-1.2,6.6-2.8
		c0.6-0.9,0.9-2.1,0.7-3.2l-5.2-5.1c0,0-0.1-0.1-0.1-0.1l-19.7-42.8c-0.1-0.3,0-0.6,0.3-0.7c0.2-0.1,0.5,0,0.7,0.2c0,0,0,0,0,0
		L243,159l5.2,5.1c0.1,0.1,0.1,0.1,0.1,0.2c0.3,1.4,0,2.9-0.8,4.2c-1.3,1.8-3.8,2.9-7.4,3.3L239.6,171.7z"/>
	<path class="st1" d="M210.7,139.1c0,0-8.4-9.5-7.6-22.1s5.1-19.4,5.1-19.4l4.3,1.1c0,0-4.7,7-5.2,18.6c-0.4,9.2,4.8,17.3,4.8,17.3
		L210.7,139.1z"/>
	<path class="st1" d="M210.7,139.6c-0.1,0-0.3-0.1-0.4-0.2c-0.1-0.1-8.5-9.8-7.7-22.5s5-19.3,5.1-19.6c0.1-0.2,0.3-0.3,0.5-0.2
		l4.3,1.1c0.2,0,0.3,0.2,0.4,0.3c0.1,0.2,0,0.3-0.1,0.5c0,0.1-4.6,7-5.1,18.3c-0.4,8.9,4.7,16.9,4.7,17c0.1,0.1,0.1,0.3,0,0.4
		l-1.4,4.5C211.1,139.4,210.9,139.5,210.7,139.6L210.7,139.6z M208.4,98.2c-0.8,1.5-4.1,8-4.8,18.8c-0.7,10.3,5,18.6,6.9,21l1.1-3.4
		c-0.8-1.3-5.1-8.8-4.8-17.4c0.1-6.4,1.8-12.7,4.9-18.3L208.4,98.2z"/>
	<path class="st1" d="M168.4,131.9c0,0,1.5-17.3,11.5-32.7l-4.3,0.6c0,0-5.8,3.1-8.4,16.1C164.9,128.1,168.4,131.9,168.4,131.9z"/>
	<path class="st1" d="M168.4,132.4c-0.1,0-0.3-0.1-0.4-0.2c-0.2-0.2-3.7-4.2-1.2-16.5c2.6-13.1,8.4-16.4,8.7-16.5h0.2l4.3-0.6
		c0.2,0,0.4,0.1,0.5,0.2c0.1,0.2,0.1,0.4,0,0.5c-9.9,15.2-11.4,32.3-11.5,32.5c0,0.2-0.1,0.4-0.3,0.4
		C168.5,132.4,168.5,132.4,168.4,132.4z M175.9,100.2c-0.7,0.4-5.7,3.9-8.1,15.8c-1.6,8.1-0.5,12.4,0.3,14.4c0.6-4.5,3-18,10.9-30.5
		L175.9,100.2z"/>
	<path class="st2" d="M212,151.7c-0.3,0-0.5-0.2-0.5-0.5c-0.5-6,1-12.1,4.1-17.3c0.1-0.3,0.4-0.4,0.7-0.2c0.3,0.1,0.4,0.4,0.2,0.7
		c0,0,0,0,0,0.1c-3,5-4.4,10.8-3.9,16.6C212.5,151.4,212.3,151.6,212,151.7C212.1,151.7,212.1,151.7,212,151.7L212,151.7z"/>
	<path class="st2" d="M175.2,164.3c-0.3,0-0.5-0.2-0.5-0.5c0,0,0,0,0,0c0-0.3-0.2-6.4,0-9.2c0-0.3,0.2-0.5,0.5-0.5c0,0,0,0,0,0
		c0.3,0,0.5,0.3,0.5,0.5c-0.2,2.8,0,9.1,0,9.1C175.7,164.1,175.5,164.3,175.2,164.3L175.2,164.3z"/>
	<path class="st2" d="M199.2,161.7c-0.1,0-0.3-0.1-0.4-0.2c-4.3-4.5-3.6-9.1-3.6-9.3c0.1-0.3,0.3-0.5,0.6-0.4c0.3,0,0.5,0.3,0.4,0.6
		c0,0,0,0,0,0c-0.2,3.1,1,6.2,3.3,8.4c0.2,0.2,0.2,0.5,0,0.7c0,0,0,0,0,0C199.5,161.7,199.3,161.7,199.2,161.7z"/>
	<path class="st1" d="M127.4,93.6c-0.2,0-0.4-0.2-0.5-0.4c-0.5-2.3,2.5-4.7,2.6-4.8c0.2-0.2,0.5-0.1,0.7,0.1
		c0.2,0.2,0.1,0.5-0.1,0.7c-0.7,0.6-2.5,2.3-2.2,3.8c0.1,0.3-0.1,0.5-0.4,0.6c0,0,0,0,0,0L127.4,93.6z"/>
	<path class="st4" d="M249.7,251.9c-0.2,0-0.4-0.2-0.5-0.4l-9.4-46.1c-0.1-0.3,0.1-0.5,0.4-0.6c0.3-0.1,0.5,0.1,0.6,0.4c0,0,0,0,0,0
		l9.4,46.1c0.1,0.3-0.1,0.5-0.4,0.6L249.7,251.9z"/>
	<path class="st4" d="M269,251.9c-0.2,0-0.4-0.2-0.5-0.4l-10-46.1c-0.1-0.3,0.1-0.5,0.4-0.6c0,0,0,0,0,0c0.3-0.1,0.5,0.1,0.6,0.4
		l10,46.1c0.1,0.3-0.1,0.5-0.4,0.6c0,0,0,0,0,0L269,251.9z"/>
	<path class="st4" d="M279.9,233.2c-0.2,0-0.3-0.1-0.4-0.2c-0.2-0.2-0.1-0.5,0.1-0.7l8.3-6.8c0.2-0.2,0.5-0.1,0.7,0.1
		s0.1,0.5-0.1,0.7l-8.3,6.8C280.2,233.1,280.1,233.2,279.9,233.2z"/>
</g>
</svg>
